<svg width="24" height="24" viewBox="0 0 24 24" fill="none" xmlns="http://www.w3.org/2000/svg">
<g clip-path="url(#clip0_6_2361)">
<path d="M12 4L3 19H21L12 4Z" stroke="#1C1B1F" stroke-width="2" stroke-linecap="square"/>
<path d="M12 10V13" stroke="#1C1B1F" stroke-width="2" stroke-linecap="square" stroke-linejoin="round"/>
<path d="M12 16.9998C11.6587 16.9998 11.3651 16.8934 11.119 16.6807C10.873 16.4643 10.75 16.2049 10.75 15.9026C10.75 15.5966 10.873 15.3372 11.119 15.1245C11.3651 14.908 11.6587 14.7998 12 14.7998C12.3452 14.7998 12.6389 14.908 12.881 15.1245C13.127 15.3372 13.25 15.5966 13.25 15.9026C13.25 16.2049 13.127 16.4643 12.881 16.6807C12.6389 16.8934 12.3452 16.9998 12 16.9998Z" fill="#1C1B1F"/>
</g>
<defs>
<clipPath id="clip0_6_2361">
<rect width="24" height="24" fill="white"/>
</clipPath>
</defs>
</svg>
