<svg width="24" height="25" viewBox="0 0 24 25" fill="none" xmlns="http://www.w3.org/2000/svg">
<path d="M13.059 21.2716C12.4733 21.8424 11.5221 21.8424 10.9364 21.2716L3.43928 13.9648C2.85357 13.3939 2.85357 12.4669 3.43928 11.896C4.02499 11.3252 4.97618 11.3252 5.56189 11.896L12 18.1707L18.4381 11.9006C19.0238 11.3297 19.975 11.3297 20.5607 11.9006C21.1464 12.4714 21.1464 13.3985 20.5607 13.9693L13.0636 21.2761L13.059 21.2716ZM20.556 5.19658L13.059 12.5034C12.4733 13.0742 11.5221 13.0742 10.9364 12.5034L3.43928 5.19658C2.85357 4.62574 2.85357 3.69869 3.43928 3.12784C4.02499 2.557 4.97618 2.557 5.56189 3.12784L12 9.40257L18.4381 3.13241C19.0238 2.56156 19.975 2.56156 20.5607 3.13241C21.1464 3.70325 21.1464 4.6303 20.5607 5.20115L20.556 5.19658Z" fill="#6B7280"/>
</svg>
