<svg width="24" height="24" viewBox="0 0 24 24" fill="none" xmlns="http://www.w3.org/2000/svg">
<mask id="path-1-inside-1_6_2603" fill="white">
<path fill-rule="evenodd" clip-rule="evenodd" d="M14.8593 19.7972C15.501 20.5342 16.4461 21 17.5 21C19.433 21 21 19.433 21 17.5C21 16.4461 20.5342 15.501 19.7972 14.8593C20.5394 14.1332 21 13.1204 21 12C21 10.8796 20.5394 9.86685 19.7972 9.14069C20.5342 8.49903 21 7.55391 21 6.5C21 4.567 19.433 3 17.5 3C16.4461 3 15.501 3.46582 14.8593 4.2028C14.1332 3.46061 13.1204 3 12 3C10.8796 3 9.86685 3.46061 9.14069 4.2028C8.49903 3.46582 7.55391 3 6.5 3C4.567 3 3 4.567 3 6.5C3 7.55391 3.46582 8.49903 4.2028 9.14069C3.46061 9.86685 3 10.8796 3 12C3 13.1204 3.46061 14.1332 4.2028 14.8593C3.46582 15.501 3 16.4461 3 17.5C3 19.433 4.567 21 6.5 21C7.55391 21 8.49903 20.5342 9.14069 19.7972C9.86685 20.5394 10.8796 21 12 21C13.1204 21 14.1331 20.5394 14.8593 19.7972Z"/>
</mask>
<path d="M14.8593 19.7972L16.3677 18.4839C16.0012 18.0629 15.4754 17.8143 14.9174 17.798C14.3595 17.7818 13.8201 17.9995 13.4297 18.3985L14.8593 19.7972ZM19.7972 14.8593L18.3985 13.4298C17.9995 13.8201 17.7818 14.3595 17.798 14.9174C17.8143 15.4754 18.0629 16.0012 18.4839 16.3677L19.7972 14.8593ZM19.7972 9.14069L18.4839 7.6323C18.0629 7.99883 17.8143 8.52462 17.798 9.08258C17.7818 9.64053 17.9995 10.1799 18.3985 10.5703L19.7972 9.14069ZM14.8593 4.2028L13.4298 5.6015C13.8201 6.00048 14.3595 6.21817 14.9174 6.20196C15.4754 6.18574 16.0012 5.93708 16.3677 5.5161L14.8593 4.2028ZM9.14069 4.2028L7.6323 5.5161C7.99883 5.93708 8.52462 6.18574 9.08258 6.20195C9.64053 6.21817 10.1799 6.00048 10.5702 5.6015L9.14069 4.2028ZM4.2028 9.14069L5.6015 10.5702C6.00048 10.1799 6.21817 9.64053 6.20195 9.08258C6.18574 8.52462 5.93708 7.99883 5.5161 7.6323L4.2028 9.14069ZM4.2028 14.8593L5.5161 16.3677C5.93708 16.0012 6.18574 15.4754 6.20196 14.9174C6.21817 14.3595 6.00048 13.8201 5.6015 13.4298L4.2028 14.8593ZM9.14069 19.7972L10.5702 18.3985C10.1799 17.9995 9.64053 17.7818 9.08258 17.798C8.52462 17.8143 7.99883 18.0629 7.6323 18.4839L9.14069 19.7972ZM13.3509 21.1105C14.3563 22.2652 15.8435 23 17.5 23V19C17.0487 19 16.6457 18.8032 16.3677 18.4839L13.3509 21.1105ZM17.5 23C20.5376 23 23 20.5376 23 17.5H19C19 18.3284 18.3284 19 17.5 19V23ZM23 17.5C23 15.8435 22.2652 14.3563 21.1105 13.3509L18.4839 16.3677C18.8032 16.6457 19 17.0487 19 17.5H23ZM21.1959 16.2889C22.3068 15.202 23 13.6801 23 12H19C19 12.5606 18.772 13.0643 18.3985 13.4298L21.1959 16.2889ZM23 12C23 10.3199 22.3068 8.79803 21.1959 7.71113L18.3985 10.5703C18.772 10.9357 19 11.4394 19 12H23ZM21.1105 10.6491C22.2652 9.64375 23 8.15652 23 6.5H19C19 6.95131 18.8032 7.35431 18.4839 7.6323L21.1105 10.6491ZM23 6.5C23 3.46243 20.5376 1 17.5 1V5C18.3284 5 19 5.67157 19 6.5H23ZM17.5 1C15.8435 1 14.3563 1.73482 13.3509 2.8895L16.3677 5.5161C16.6457 5.19682 17.0487 5 17.5 5V1ZM16.2889 2.8041C15.202 1.69321 13.6801 1 12 1V5C12.5606 5 13.0643 5.22801 13.4298 5.6015L16.2889 2.8041ZM12 1C10.3199 1 8.79803 1.69321 7.71113 2.8041L10.5702 5.6015C10.9357 5.22801 11.4394 5 12 5V1ZM10.6491 2.8895C9.64374 1.73482 8.15652 1 6.5 1V5C6.95131 5 7.35431 5.19682 7.6323 5.5161L10.6491 2.8895ZM6.5 1C3.46243 1 1 3.46243 1 6.5H5C5 5.67157 5.67157 5 6.5 5V1ZM1 6.5C1 8.15652 1.73482 9.64374 2.8895 10.6491L5.5161 7.6323C5.19682 7.35431 5 6.95131 5 6.5H1ZM2.8041 7.71113C1.69321 8.79803 1 10.3199 1 12H5C5 11.4394 5.22801 10.9357 5.6015 10.5702L2.8041 7.71113ZM1 12C1 13.6801 1.69321 15.202 2.8041 16.2889L5.6015 13.4298C5.22801 13.0643 5 12.5606 5 12H1ZM2.8895 13.3509C1.73482 14.3563 1 15.8435 1 17.5H5C5 17.0487 5.19682 16.6457 5.5161 16.3677L2.8895 13.3509ZM1 17.5C1 20.5376 3.46243 23 6.5 23V19C5.67157 19 5 18.3284 5 17.5H1ZM6.5 23C8.15652 23 9.64374 22.2652 10.6491 21.1105L7.6323 18.4839C7.35431 18.8032 6.95131 19 6.5 19V23ZM12 19C11.4394 19 10.9357 18.772 10.5702 18.3985L7.71113 21.1959C8.79803 22.3068 10.3199 23 12 23V19ZM13.4297 18.3985C13.0643 18.772 12.5606 19 12 19V23C13.6801 23 15.202 22.3068 16.2889 21.1959L13.4297 18.3985Z" fill="#1C1B1F" mask="url(#path-1-inside-1_6_2603)"/>
<path d="M9 15V9H15V15H9Z" stroke="#1C1B1F" stroke-width="2"/>
</svg>
