<svg width="24" height="24" viewBox="0 0 24 24" fill="none" xmlns="http://www.w3.org/2000/svg">
<path d="M6 7.8V20.5L11.2259 17.8871C11.5088 17.7456 11.6502 17.6749 11.798 17.6501C11.9289 17.6282 12.0627 17.6325 12.1919 17.6628C12.3378 17.6971 12.4744 17.7767 12.7476 17.9361L12.7476 17.9361L18 21V7.8C18 6.11984 18 5.27976 17.673 4.63803C17.3854 4.07354 16.9265 3.6146 16.362 3.32698C15.7202 3 14.8802 3 13.2 3H10.8C9.11984 3 8.27976 3 7.63803 3.32698C7.07354 3.6146 6.6146 4.07354 6.32698 4.63803C6 5.27976 6 6.11984 6 7.8Z" stroke="#1C1B1F" stroke-width="2"/>
</svg>
