<svg width="25" height="25" viewBox="0 0 25 25" fill="none" xmlns="http://www.w3.org/2000/svg">
<path d="M18.9167 4.49994C18.9167 4.2082 18.8039 3.9285 18.6034 3.72221C18.4028 3.51592 18.1309 3.39994 17.8472 3.39994H7.15279C6.86916 3.39994 6.59722 3.51592 6.39666 3.72221C6.1961 3.92849 6.08335 4.2082 6.08335 4.49994V20.2039L11.9695 16.7449L12.0958 16.6815C12.3979 16.5547 12.7428 16.5758 13.0306 16.7449L18.9167 20.2039V4.49994ZM21.0556 22.0999C21.0556 22.492 20.8527 22.8548 20.5229 23.0516C20.1932 23.2484 19.7865 23.2494 19.4556 23.0548L12.5 18.9664L5.54445 23.0548C5.21349 23.2494 4.80679 23.2484 4.47709 23.0516C4.14737 22.8548 3.94446 22.492 3.94446 22.0999V4.49994C3.94446 3.62473 4.28272 2.78561 4.8844 2.16674C5.48608 1.54788 6.30189 1.19995 7.15279 1.19995H17.8472C18.6981 1.19995 19.5139 1.54788 20.1156 2.16674C20.7173 2.78561 21.0556 3.62473 21.0556 4.49994V22.0999Z" fill="#6B7280"/>
</svg>
