<svg width="25" height="25" viewBox="0 0 25 25" fill="none" xmlns="http://www.w3.org/2000/svg">
<path d="M17.9546 2.38153V10.0179C17.9546 10.4591 17.6888 10.8568 17.2813 11.0257C16.8736 11.1946 16.4043 11.1012 16.0923 10.7892L13.5909 8.28778L11.0895 10.7892C10.7775 11.1012 10.3082 11.1946 9.90057 11.0257C9.49301 10.8568 9.22728 10.4591 9.22728 10.0179V2.38153H6.50001C6.06602 2.38153 5.64992 2.55405 5.34305 2.86093C5.03617 3.16781 4.86364 3.5839 4.86364 4.01789V16.932C5.37031 16.6916 5.92852 16.5633 6.50001 16.5633H20.1364V2.38153H17.9546ZM11.4091 7.38437L12.8196 5.97385L12.9027 5.89928C13.3312 5.54981 13.9628 5.57446 14.3622 5.97385L15.7727 7.38437V2.38153H11.4091V7.38437ZM4.86364 20.3815C4.86364 20.8155 5.03617 21.2316 5.34305 21.5385C5.64992 21.8454 6.06602 22.0179 6.50001 22.0179H20.1364V18.7452H6.50001C6.06602 18.7452 5.64992 18.9177 5.34305 19.2246C5.03617 19.5314 4.86364 19.9475 4.86364 20.3815ZM22.3182 22.0179C22.3182 22.5965 22.0882 23.1513 21.679 23.5605C21.2698 23.9697 20.715 24.1997 20.1364 24.1997H6.50001C5.48736 24.1997 4.51648 23.7971 3.80043 23.0811C3.08438 22.3651 2.68182 21.3942 2.68182 20.3815V4.01789C2.68182 3.00524 3.08438 2.03436 3.80043 1.31832C4.51648 0.602267 5.48736 0.199707 6.50001 0.199707H20.1364L20.3516 0.21036C20.8512 0.259866 21.3209 0.480781 21.679 0.838912C22.0882 1.24808 22.3182 1.80287 22.3182 2.38153V22.0179Z" fill="#6B7280"/>
</svg>
