<svg width="25" height="24" viewBox="0 0 25 24" fill="none" xmlns="http://www.w3.org/2000/svg">
<path d="M18.9167 4.29999C18.9167 4.00825 18.8039 3.72854 18.6034 3.52225C18.4028 3.31597 18.1309 3.19999 17.8472 3.19999H7.15279C6.86916 3.19999 6.59722 3.31597 6.39666 3.52225C6.1961 3.72854 6.08335 4.00825 6.08335 4.29999V20.0039L11.9695 16.545L12.0958 16.4816C12.3979 16.3547 12.7428 16.3758 13.0306 16.545L18.9167 20.0039V4.29999ZM14.9522 6.82224C15.3699 6.39267 16.0468 6.39267 16.4645 6.82224C16.8821 7.25182 16.8821 7.94813 16.4645 8.3777L12.1867 12.7777C11.7691 13.2073 11.0921 13.2073 10.6744 12.7777L8.53555 10.5777L8.46244 10.4939C8.11985 10.0619 8.14401 9.42496 8.53555 9.02223C8.92709 8.61951 9.5463 8.59465 9.96635 8.94704L10.0478 9.02223L11.4306 10.4445L14.9522 6.82224ZM21.0556 21.8999C21.0556 22.292 20.8527 22.6549 20.5229 22.8517C20.1932 23.0484 19.7865 23.0494 19.4556 22.8549L12.5 18.7664L5.54445 22.8549C5.21349 23.0494 4.80679 23.0484 4.47709 22.8517C4.14737 22.6549 3.94446 22.292 3.94446 21.8999V4.29999C3.94446 3.42478 4.28272 2.58566 4.8844 1.96679C5.48608 1.34793 6.30189 1 7.15279 1H17.8472C18.6981 1 19.5139 1.34793 20.1156 1.96679C20.7173 2.58566 21.0556 3.42477 21.0556 4.29999V21.8999Z" fill="#6B7280"/>
</svg>
