<svg width="24" height="24" viewBox="0 0 24 24" fill="none" xmlns="http://www.w3.org/2000/svg">
<path d="M2 5H6L9 16L14.8389 14.7025C15.9805 14.4488 16.5513 14.3219 17.0044 14.0284C17.4048 13.7691 17.7376 13.418 17.9751 13.0043C18.244 12.5362 18.3401 11.9594 18.5324 10.8059L19 8H7" stroke="#1C1B1F" stroke-width="2"/>
<path d="M9.5 22C9.09048 22 8.7381 21.855 8.44286 21.5649C8.14762 21.2697 8 20.916 8 20.5038C8 20.0865 8.14762 19.7328 8.44286 19.4427C8.7381 19.1476 9.09048 19 9.5 19C9.91429 19 10.2667 19.1476 10.5571 19.4427C10.8524 19.7328 11 20.0865 11 20.5038C11 20.916 10.8524 21.2697 10.5571 21.5649C10.2667 21.855 9.91429 22 9.5 22Z" fill="#1C1B1F"/>
<path d="M16.5 22C16.0905 22 15.7381 21.855 15.4429 21.5649C15.1476 21.2697 15 20.916 15 20.5038C15 20.0865 15.1476 19.7328 15.4429 19.4427C15.7381 19.1476 16.0905 19 16.5 19C16.9143 19 17.2667 19.1476 17.5571 19.4427C17.8524 19.7328 18 20.0865 18 20.5038C18 20.916 17.8524 21.2697 17.5571 21.5649C17.2667 21.855 16.9143 22 16.5 22Z" fill="#1C1B1F"/>
</svg>
