<svg width="24" height="24" viewBox="0 0 24 24" fill="none" xmlns="http://www.w3.org/2000/svg">
<path d="M12 21L9.42857 17.9994C5.5397 17.0101 3.22078 13.7506 3.9759 10.1116C3.99294 10.0294 4.00146 9.98838 4.00477 9.97322C4.00881 9.95475 4.00959 9.95127 4.01388 9.93286C4.0174 9.91774 4.01956 9.90886 4.02389 9.8911C4.20199 9.1604 5.50141 5 12 5C18.4986 5 19.798 9.1604 19.9761 9.8911C19.9804 9.90886 19.9826 9.91774 19.9861 9.93286C19.9904 9.95127 19.9912 9.95475 19.9952 9.97322C19.9985 9.98838 20.007 10.0294 20.0241 10.1116C20.7792 13.7506 18.4603 17.0101 14.5714 17.9994L12 21Z" stroke="#1C1B1F" stroke-width="2" stroke-linecap="round"/>
</svg>
