<svg width="24" height="24" viewBox="0 0 24 24" fill="none" xmlns="http://www.w3.org/2000/svg">
<path d="M7.0001 17.9725L8.0001 17.9753C8.00148 17.4644 7.61767 17.0347 7.10995 16.9786L7.0001 17.9725ZM7.20434 9.00956L7.26906 10.0075C7.69241 9.98 8.05237 9.6884 8.16708 9.27997L7.20434 9.00956ZM17.9746 11.0319L16.9792 10.9364C16.9279 11.471 17.3081 11.9507 17.8403 12.0228L17.9746 11.0319ZM17 17.9646L17.1416 16.9746C16.8538 16.9335 16.5623 17.0196 16.343 17.2106C16.1238 17.4016 15.9986 17.6786 16 17.9693L17 17.9646ZM17.0001 18.0001V19.0001C17.5523 19.0001 18.0001 18.5523 18.0001 18.0001H17.0001ZM7.00006 18.0001H6.00006C6.00006 18.5523 6.44778 19.0001 7.00006 19.0001V18.0001ZM7.10995 16.9786C5.361 16.7853 4 15.3009 4 13.5H2C2 16.3317 4.13916 18.6624 6.89025 18.9665L7.10995 16.9786ZM4 13.5C4 11.6447 5.44421 10.1258 7.26906 10.0075L7.13962 8.01165C4.26954 8.1978 2 10.5835 2 13.5H4ZM8.16708 9.27997C8.69885 7.38669 10.4388 6 12.5 6V4C9.51917 4 7.00936 6.00564 6.24159 8.73915L8.16708 9.27997ZM12.5 6C14.9853 6 17 8.01472 17 10.5H19C19 6.91015 16.0899 4 12.5 4V6ZM17 10.5C17 10.6475 16.9929 10.793 16.9792 10.9364L18.97 11.1274C18.9899 10.9207 19 10.7114 19 10.5H17ZM17.8403 12.0228C19.0597 12.1882 20 13.2351 20 14.5H22C22 12.2209 20.3066 10.3389 18.1089 10.041L17.8403 12.0228ZM20 14.5C20 15.8807 18.8807 17 17.5 17V19C19.9853 19 22 16.9853 22 14.5H20ZM17.5 17C17.3778 17 17.2581 16.9913 17.1416 16.9746L16.8584 18.9545C17.0684 18.9845 17.2827 19 17.5 19V17ZM18.0001 18.0001C18.0001 17.9865 18 17.9731 18 17.9598L16 17.9693C16 17.9797 16.0001 17.9899 16.0001 18.0001H18.0001ZM7.00006 19.0001H17.0001V17.0001H7.00006V19.0001ZM6.0001 17.9698C6.00008 17.9798 6.00006 17.9898 6.00006 18.0001H8.00006C8.00006 17.9919 8.00007 17.9837 8.0001 17.9753L6.0001 17.9698Z" fill="#1C1B1F"/>
</svg>
