<svg width="24" height="24" viewBox="0 0 24 24" fill="none" xmlns="http://www.w3.org/2000/svg">
<path d="M4.03253 13.8251C4.36939 13.1961 4.26627 12.4227 3.77472 11.9071C3.04256 11.1371 2.6507 10.2125 2.6507 9.24999C2.6507 7.06725 4.84375 4.85014 8.15051 4.85014C11.4573 4.85014 13.6503 7.06725 13.6503 9.24999C13.6503 11.4327 11.4573 13.6498 8.15051 13.6498C7.70021 13.6498 7.26367 13.6052 6.85118 13.5261C6.49369 13.4573 6.12246 13.5055 5.7959 13.6705C5.65497 13.7426 5.5106 13.8114 5.36279 13.8767C4.81281 14.1242 4.23189 14.3408 3.64754 14.4954C3.74379 14.3373 3.83316 14.1826 3.91909 14.0279C3.9569 13.9626 3.99472 13.8939 4.02909 13.8251H4.03253ZM1.00076 9.24999C1.00076 10.6868 1.59199 12.0033 2.57851 13.0414C2.54758 13.0999 2.5132 13.1617 2.48227 13.2167C2.12822 13.8492 1.71573 14.4714 1.22419 15.0076C0.997318 15.2482 0.938883 15.5988 1.06607 15.8979C1.20012 16.2038 1.49574 16.3997 1.82573 16.3997C3.3038 16.3997 4.79906 15.9426 6.0434 15.3788C6.20839 15.3032 6.37338 15.2242 6.5315 15.1451C7.05055 15.2482 7.59365 15.2998 8.15051 15.2998C12.1001 15.2998 15.3003 12.5911 15.3003 9.24999C15.3003 5.90885 12.1001 3.2002 8.15051 3.2002C4.20096 3.2002 1.00076 5.90885 1.00076 9.24999ZM15.8502 19.6996C16.4071 19.6996 16.9468 19.6446 17.4693 19.5449C17.6274 19.624 17.7924 19.7031 17.9574 19.7787C19.2017 20.3424 20.697 20.7996 22.175 20.7996C22.505 20.7996 22.8006 20.6037 22.9313 20.3012C23.0619 19.9987 23 19.6481 22.7731 19.4109C22.285 18.8747 21.8725 18.2525 21.5151 17.62C21.4841 17.5616 21.4497 17.5031 21.4188 17.4447C22.4088 16.4032 23 15.0867 23 13.6498C23 10.4049 19.9785 7.75473 16.1871 7.60692C16.328 8.1294 16.4002 8.67938 16.4002 9.24999V9.27061C19.3976 9.50092 21.3501 11.5908 21.3501 13.6498C21.3501 14.6123 20.9582 15.537 20.226 16.3035C19.7345 16.8191 19.6314 17.596 19.9682 18.2216C20.006 18.2903 20.0439 18.359 20.0782 18.4244C20.1642 18.579 20.257 18.7337 20.3498 18.8918C19.7654 18.7372 19.1845 18.524 18.6345 18.2731C18.4867 18.2078 18.3423 18.1391 18.2014 18.0669C17.8749 17.9019 17.5036 17.8538 17.1461 17.9225C16.7302 18.005 16.2971 18.0462 15.8468 18.0462C13.7259 18.0462 12.0657 17.1353 11.1445 15.9048C10.5945 16.0904 10.017 16.2279 9.42578 16.3104C10.5911 18.3178 13.0316 19.6996 15.8502 19.6996Z" fill="#6B7280"/>
</svg>
