<svg width="24" height="24" viewBox="0 0 24 24" fill="none" xmlns="http://www.w3.org/2000/svg">
<path d="M3.30821 14.0742C3.6757 13.3594 3.5632 12.4805 3.02697 11.8945C2.22825 11.0195 1.80076 9.96875 1.80076 8.875C1.80076 6.39453 4.19318 3.875 7.80056 3.875C11.4079 3.875 13.8004 6.39453 13.8004 8.875C13.8004 11.3555 11.4079 13.875 7.80056 13.875C7.30932 13.875 6.83309 13.8242 6.38311 13.7344C5.99312 13.6562 5.58813 13.7109 5.23189 13.8984C5.07815 13.9805 4.92066 14.0586 4.75941 14.1328C4.15943 14.4141 3.5257 14.6602 2.88823 14.8359C2.99322 14.6563 3.09072 14.4805 3.18447 14.3047C3.22571 14.2305 3.26696 14.1523 3.30446 14.0742H3.30821ZM0.000824521 8.875C0.000824521 10.5078 0.645802 12.0039 1.72202 13.1836C1.68827 13.25 1.65077 13.3203 1.61702 13.3828C1.23078 14.1016 0.780798 14.8086 0.244566 15.418C-0.00292535 15.6914 -0.0666732 16.0898 0.0720721 16.4297C0.218317 16.7773 0.540806 17 0.900794 17C2.51324 17 4.14443 16.4805 5.50189 15.8398C5.68188 15.7539 5.86187 15.6641 6.03437 15.5742C6.6006 15.6914 7.19308 15.75 7.80056 15.75C12.1092 15.75 15.6003 12.6719 15.6003 8.875C15.6003 5.07813 12.1092 2 7.80056 2C3.49195 2 0.000824521 5.07813 0.000824521 8.875ZM16.2003 20.75C16.8077 20.75 17.3965 20.6875 17.9665 20.5742C18.139 20.6641 18.3189 20.7539 18.4989 20.8398C19.8564 21.4805 21.4876 22 23.1 22C23.46 22 23.7825 21.7773 23.925 21.4336C24.0675 21.0898 24 20.6914 23.7525 20.4219C23.22 19.8125 22.77 19.1055 22.3801 18.3867C22.3463 18.3203 22.3088 18.2539 22.2751 18.1875C23.355 17.0039 24 15.5078 24 13.875C24 10.1875 20.7039 7.17578 16.5678 7.00781C16.7215 7.60156 16.8002 8.22656 16.8002 8.875V8.89844C20.0701 9.16016 22.2001 11.5352 22.2001 13.875C22.2001 14.9688 21.7726 16.0195 20.9739 16.8906C20.4376 17.4766 20.3251 18.3594 20.6926 19.0703C20.7339 19.1484 20.7751 19.2266 20.8126 19.3008C20.9064 19.4766 21.0076 19.6523 21.1089 19.832C20.4714 19.6562 19.8376 19.4141 19.2377 19.1289C19.0764 19.0547 18.9189 18.9766 18.7652 18.8945C18.4089 18.707 18.004 18.6523 17.614 18.7305C17.1602 18.8242 16.6878 18.8711 16.1965 18.8711C13.8828 18.8711 12.0717 17.8359 11.0667 16.4375C10.4667 16.6484 9.83674 16.8047 9.19176 16.8984C10.463 19.1797 13.1254 20.75 16.2003 20.75Z" fill="#6B7280"/>
</svg>
