<svg width="24" height="25" viewBox="0 0 24 25" fill="none" xmlns="http://www.w3.org/2000/svg">
<path d="M6.31516 18.01C6.86932 17.6062 7.58672 17.5031 8.23108 17.735C9.36947 18.1474 10.6453 18.3837 12.0028 18.3837C17.3596 18.3837 20.938 14.9256 20.938 11.5104C20.938 8.09528 17.3596 4.63717 12.0028 4.63717C6.64594 4.63717 3.06755 8.09528 3.06755 11.5104C3.06755 12.8851 3.60022 14.2082 4.60114 15.3423C4.97058 15.759 5.151 16.3088 5.10805 16.8673C5.04791 17.6448 4.86319 18.3579 4.62262 18.9894C5.35291 18.65 5.95861 18.272 6.31516 18.0143V18.01ZM1.91628 19.754C1.9936 19.6381 2.06663 19.5221 2.13536 19.4061C2.56494 18.693 2.97304 17.7565 3.05466 16.704C1.76592 15.2392 1.00557 13.4478 1.00557 11.5104C1.00557 6.57457 5.92854 2.5752 12.0028 2.5752C18.077 2.5752 23 6.57457 23 11.5104C23 16.4463 18.077 20.4457 12.0028 20.4457C10.409 20.4457 8.89693 20.1707 7.53087 19.6767C7.01967 20.0505 6.18629 20.5617 5.19826 20.9912C4.54959 21.2748 3.81072 21.5325 3.04607 21.6829C3.0117 21.6914 2.97734 21.6957 2.94297 21.7043C2.75396 21.7387 2.56924 21.7688 2.37593 21.786C2.36733 21.786 2.35445 21.7903 2.34586 21.7903C2.12677 21.8117 1.90769 21.8246 1.6886 21.8246C1.40937 21.8246 1.16022 21.6571 1.05282 21.3993C0.945429 21.1416 1.00557 20.8495 1.19888 20.6519C1.37501 20.4714 1.53395 20.2781 1.6843 20.0719C1.75733 19.9731 1.82607 19.8743 1.8905 19.7755C1.8948 19.7669 1.89909 19.7626 1.90339 19.754H1.91628Z" fill="#6B7280"/>
</svg>
