<svg width="24" height="25" viewBox="0 0 24 25" fill="none" xmlns="http://www.w3.org/2000/svg">
<path d="M5.79836 18.5381C6.40289 18.0976 7.18551 17.9851 7.88846 18.2382C9.13033 18.6881 10.5222 18.9458 12.003 18.9458C17.8469 18.9458 21.7506 15.1733 21.7506 11.4477C21.7506 7.72211 17.8469 3.94963 12.003 3.94963C6.15921 3.94963 2.25551 7.72211 2.25551 11.4477C2.25551 12.9473 2.83661 14.3907 3.92852 15.6279C4.33154 16.0825 4.52837 16.6823 4.48151 17.2916C4.4159 18.1398 4.21439 18.9177 3.95195 19.6066C4.74863 19.2364 5.4094 18.824 5.79836 18.5428V18.5381ZM0.999575 20.4408C1.08393 20.3142 1.1636 20.1877 1.23858 20.0612C1.70721 19.2832 2.15241 18.2616 2.24145 17.1135C0.835554 15.5154 0.00607604 13.5613 0.00607604 11.4477C0.00607604 6.06315 5.37659 1.7002 12.003 1.7002C18.6295 1.7002 24 6.06315 24 11.4477C24 16.8323 18.6295 21.1953 12.003 21.1953C10.2644 21.1953 8.61483 20.8953 7.12459 20.3564C6.56691 20.7641 5.65777 21.3218 4.57992 21.7904C3.87228 22.0997 3.06624 22.3809 2.23207 22.5449C2.19458 22.5543 2.15709 22.559 2.1196 22.5683C1.91341 22.6058 1.71189 22.6386 1.50101 22.6574C1.49164 22.6574 1.47758 22.6621 1.46821 22.6621C1.2292 22.6855 0.990202 22.6996 0.7512 22.6996C0.44659 22.6996 0.174783 22.5168 0.0576255 22.2356C-0.0595323 21.9544 0.00607603 21.6358 0.21696 21.4202C0.409099 21.2234 0.582493 21.0125 0.746514 20.7875C0.826181 20.6798 0.901162 20.572 0.971457 20.4642C0.976143 20.4548 0.980829 20.4501 0.985516 20.4408H0.999575Z" fill="#6B7280"/>
</svg>
