<svg width="24" height="24" viewBox="0 0 24 24" fill="none" xmlns="http://www.w3.org/2000/svg">
<path d="M19 12.5C19 13.8807 15.866 15 12 15C8.13401 15 5 13.8807 5 12.5" stroke="#1C1B1F" stroke-width="2" stroke-linecap="square" stroke-linejoin="round"/>
<path d="M19 7.5C19 8.88071 15.866 10 12 10C8.13401 10 5 8.88071 5 7.5M19 7.5C19 6.11929 15.866 5 12 5C8.13401 5 5 6.11929 5 7.5M19 7.5V17.5C19 18.8807 15.866 20 12 20C8.13401 20 5 18.8807 5 17.5V7.5" stroke="#1C1B1F" stroke-width="2" stroke-linecap="square" stroke-linejoin="round"/>
</svg>
