<svg width="24" height="25" viewBox="0 0 24 25" fill="none" xmlns="http://www.w3.org/2000/svg">
<path d="M8.94643 2.96073C8.94643 2.39667 8.49263 1.94287 7.92857 1.94287C7.36451 1.94287 6.91071 2.39667 6.91071 2.96073V4.65716H5.21429C3.71719 4.65716 2.5 5.87434 2.5 7.37144V8.05001V10.0857V20.9429C2.5 22.44 3.71719 23.6572 5.21429 23.6572H18.7857C20.2828 23.6572 21.5 22.44 21.5 20.9429V10.0857V8.05001V7.37144C21.5 5.87434 20.2828 4.65716 18.7857 4.65716H17.0893V2.96073C17.0893 2.39667 16.6355 1.94287 16.0714 1.94287C15.5074 1.94287 15.0536 2.39667 15.0536 2.96073V4.65716H8.94643V2.96073ZM4.53571 10.0857H19.4643V20.9429C19.4643 21.3161 19.1589 21.6214 18.7857 21.6214H5.21429C4.84107 21.6214 4.53571 21.3161 4.53571 20.9429V10.0857Z" fill="#6B7280"/>
</svg>
