<svg width="24" height="25" viewBox="0 0 24 25" fill="none" xmlns="http://www.w3.org/2000/svg">
<g clip-path="url(#clip0_15_304)">
<path d="M9.61161 3.67491L8.76339 4.94277H15.2366L14.3884 3.67491C14.3214 3.57669 14.2098 3.51419 14.0893 3.51419H9.90625C9.78571 3.51419 9.67411 3.57223 9.60714 3.67491H9.61161ZM16.1741 2.48741L17.8125 4.94277H18.4286H20.5714H20.9286C21.5223 4.94277 22 5.42044 22 6.01419C22 6.60794 21.5223 7.08562 20.9286 7.08562H20.5714V20.6571C20.5714 22.6303 18.9732 24.2285 17 24.2285H7C5.02679 24.2285 3.42857 22.6303 3.42857 20.6571V7.08562H3.07143C2.47768 7.08562 2 6.60794 2 6.01419C2 5.42044 2.47768 4.94277 3.07143 4.94277H3.42857H5.57143H6.1875L7.82589 2.48295C8.29018 1.79098 9.07143 1.37134 9.90625 1.37134H14.0893C14.9241 1.37134 15.7054 1.79098 16.1696 2.48295L16.1741 2.48741ZM5.57143 7.08562V20.6571C5.57143 21.4472 6.20982 22.0856 7 22.0856H17C17.7902 22.0856 18.4286 21.4472 18.4286 20.6571V7.08562H5.57143ZM9.14286 9.94277V19.2285C9.14286 19.6213 8.82143 19.9428 8.42857 19.9428C8.03571 19.9428 7.71429 19.6213 7.71429 19.2285V9.94277C7.71429 9.54991 8.03571 9.22848 8.42857 9.22848C8.82143 9.22848 9.14286 9.54991 9.14286 9.94277ZM12.7143 9.94277V19.2285C12.7143 19.6213 12.3929 19.9428 12 19.9428C11.6071 19.9428 11.2857 19.6213 11.2857 19.2285V9.94277C11.2857 9.54991 11.6071 9.22848 12 9.22848C12.3929 9.22848 12.7143 9.54991 12.7143 9.94277ZM16.2857 9.94277V19.2285C16.2857 19.6213 15.9643 19.9428 15.5714 19.9428C15.1786 19.9428 14.8571 19.6213 14.8571 19.2285V9.94277C14.8571 9.54991 15.1786 9.22848 15.5714 9.22848C15.9643 9.22848 16.2857 9.54991 16.2857 9.94277Z" fill="#6B7280"/>
</g>
<defs>
<clipPath id="clip0_15_304">
<rect width="24" height="24" fill="white" transform="translate(0 0.799805)"/>
</clipPath>
</defs>
</svg>
