<svg width="24" height="24" viewBox="0 0 24 24" fill="none" xmlns="http://www.w3.org/2000/svg">
<path d="M15.2 5H8.8C7.11984 5 6.27976 5 5.63803 5.32698C5.07354 5.6146 4.6146 6.07354 4.32698 6.63803C4 7.27976 4 8.11984 4 9.8V12.2C4 13.8802 4 14.7202 4.32698 15.362C4.6146 15.9265 5.07354 16.3854 5.63803 16.673C6.27976 17 7.11984 17 8.8 17H15.2C16.8802 17 17.7202 17 18.362 16.673C18.9265 16.3854 19.3854 15.9265 19.673 15.362C20 14.7202 20 13.8802 20 12.2V9.8C20 8.11984 20 7.27976 19.673 6.63803C19.3854 6.07354 18.9265 5.6146 18.362 5.32698C17.7202 5 16.8802 5 15.2 5Z" stroke="#1C1B1F" stroke-width="2"/>
<path d="M8 21H16" stroke="#1C1B1F" stroke-width="2" stroke-linecap="square" stroke-linejoin="round"/>
</svg>
