<svg width="24" height="24" viewBox="0 0 24 24" fill="none" xmlns="http://www.w3.org/2000/svg">
<path d="M9.8 20H14.2C15.8802 20 16.7202 20 17.362 19.673C17.9265 19.3854 18.3854 18.9265 18.673 18.362C19 17.7202 19 16.8802 19 15.2V10.9882C19 10.2545 19 9.88757 18.9171 9.5423C18.8436 9.2362 18.7224 8.94356 18.5579 8.67515C18.3724 8.3724 18.113 8.11297 17.5941 7.59411L15.4059 5.40589C14.887 4.88703 14.6276 4.6276 14.3249 4.44208C14.0564 4.27759 13.7638 4.15638 13.4577 4.08289C13.1124 4 12.7455 4 12.0118 4H9.8C8.11984 4 7.27976 4 6.63803 4.32698C6.07354 4.6146 5.6146 5.07354 5.32698 5.63803C5 6.27976 5 7.11984 5 8.8V15.2C5 16.8802 5 17.7202 5.32698 18.362C5.6146 18.9265 6.07354 19.3854 6.63803 19.673C7.27976 20 8.11984 20 9.8 20Z" stroke="#1C1B1F" stroke-width="2"/>
<path d="M13 6V10H17" stroke="#1C1B1F" stroke-width="2" stroke-linecap="square" stroke-linejoin="round"/>
</svg>
