<svg width="24" height="25" viewBox="0 0 24 25" fill="none" xmlns="http://www.w3.org/2000/svg">
<path d="M20.0956 3.98055L20.6195 4.50449C21.0266 4.91152 21.0266 5.56969 20.6195 5.97238L19.3595 7.23677L17.3633 5.2406L18.6234 3.98055C19.0304 3.57353 19.6886 3.57353 20.0913 3.98055H20.0956ZM10.0845 12.5238L15.8954 6.7085L17.8916 8.70466L12.0763 14.5156C11.9507 14.6412 11.7949 14.7321 11.626 14.7797L9.0929 15.5029L9.81602 12.9698C9.86365 12.8009 9.95458 12.645 10.0802 12.5195L10.0845 12.5238ZM17.1555 2.51266L8.61226 11.0516C8.23555 11.4283 7.96275 11.8916 7.81986 12.3982L6.58146 16.7283C6.47754 17.092 6.57713 17.4817 6.84559 17.7502C7.11406 18.0186 7.50376 18.1182 7.86749 18.0143L12.1976 16.7759C12.7085 16.6287 13.1718 16.3559 13.5442 15.9835L22.0874 7.44461C23.3042 6.22786 23.3042 4.25335 22.0874 3.0366L21.5635 2.51266C20.3467 1.29591 18.3722 1.29591 17.1555 2.51266ZM4.81046 4.20139C2.70605 4.20139 1 5.90743 1 8.01185V19.7896C1 21.8941 2.70605 23.6001 4.81046 23.6001H16.5882C18.6927 23.6001 20.3987 21.8941 20.3987 19.7896V14.94C20.3987 14.3641 19.9354 13.9007 19.3595 13.9007C18.7836 13.9007 18.3203 14.3641 18.3203 14.94V19.7896C18.3203 20.7466 17.5452 21.5217 16.5882 21.5217H4.81046C3.85352 21.5217 3.07843 20.7466 3.07843 19.7896V8.01185C3.07843 7.0549 3.85352 6.27982 4.81046 6.27982H9.66014C10.236 6.27982 10.6994 5.8165 10.6994 5.2406C10.6994 4.6647 10.236 4.20139 9.66014 4.20139H4.81046Z" fill="#6B7280"/>
</svg>
