<svg width="24" height="24" viewBox="0 0 24 24" fill="none" xmlns="http://www.w3.org/2000/svg">
<path d="M8.8 19H15.2C16.8802 19 17.7202 19 18.362 18.673C18.9265 18.3854 19.3854 17.9265 19.673 17.362C20 16.7202 20 15.8802 20 14.2V9.8C20 8.11984 20 7.27976 19.673 6.63803C19.3854 6.07354 18.9265 5.6146 18.362 5.32698C17.7202 5 16.8802 5 15.2 5H8.8C7.11984 5 6.27976 5 5.63803 5.32698C5.07354 5.6146 4.6146 6.07354 4.32698 6.63803C4 7.27976 4 8.11984 4 9.8V14.2C4 15.8802 4 16.7202 4.32698 17.362C4.6146 17.9265 5.07354 18.3854 5.63803 18.673C6.27976 19 7.11984 19 8.8 19Z" stroke="#1C1B1F" stroke-width="2"/>
<path d="M5 9L12 13L19 9" stroke="#1C1B1F" stroke-width="2" stroke-linecap="square" stroke-linejoin="round"/>
</svg>
