<svg width="24" height="24" viewBox="0 0 24 24" fill="none" xmlns="http://www.w3.org/2000/svg">
<path d="M12 9V12" stroke="#1C1B1F" stroke-width="2" stroke-linecap="square" stroke-linejoin="round"/>
<path d="M12 16.4002C11.6587 16.4002 11.3651 16.2938 11.119 16.0811C10.873 15.8647 10.75 15.6053 10.75 15.303C10.75 14.997 10.873 14.7376 11.119 14.5249C11.3651 14.3084 11.6587 14.2002 12 14.2002C12.3452 14.2002 12.6389 14.3084 12.881 14.5249C13.127 14.7376 13.25 14.997 13.25 15.303C13.25 15.6053 13.127 15.8647 12.881 16.0811C12.6389 16.2938 12.3452 16.4002 12 16.4002Z" fill="#1C1B1F"/>
<rect x="4" y="4" width="16" height="16" rx="8" stroke="#1C1B1F" stroke-width="2"/>
</svg>
