<svg width="24" height="24" viewBox="0 0 24 24" fill="none" xmlns="http://www.w3.org/2000/svg">
<path d="M12 5V10M12 5H9.5245C8.13026 5 7 6.13026 7 7.5245V7.5245C7 8.9385 8.16126 10.0768 9.57498 10.0485L12 10M12 5H14.5C15.8807 5 17 6.11929 17 7.5V7.5C17 8.88071 15.8807 10 14.5 10H12M12 15V17.5C12 18.8807 10.8679 20 9.48718 20V20C8.12056 20 7 18.8921 7 17.5255V17.5255C7 16.1782 8.07794 15.0784 9.42502 15.0515L12 15ZM12 15V10M12 15H9.5C8.11929 15 7 13.8807 7 12.5V12.5C7 11.1193 8.11929 10 9.5 10H12M12 15H14.5255C15.8921 15 17 13.8921 17 12.5255V12.5255C17 11.1782 15.9221 10.0784 14.575 10.0515L12 10" stroke="#1C1B1F" stroke-width="2"/>
</svg>
