<svg width="25" height="25" viewBox="0 0 25 25" fill="none" xmlns="http://www.w3.org/2000/svg">
<path d="M12.3239 0.800049H12.7107L12.8281 0.819971L12.9179 0.846535L12.9662 0.859816L13.0491 0.893021L13.1044 0.919584L13.1389 0.939506V0.952788L13.1735 0.959429L13.208 0.972711L13.2495 0.992633L13.2909 1.0192L13.3531 1.0524L13.4359 1.09889L13.4567 1.10553L13.4843 1.13209L13.5672 1.17194V1.19186H13.6017L13.6501 1.21842L13.7192 1.25163V1.26491L13.7537 1.27819L13.7951 1.29811L13.8297 1.31139V1.32468L13.8573 1.33132L13.8987 1.35788L13.9333 1.37116L13.9747 1.39772L13.9954 1.40437L14.0024 1.41765L14.0438 1.42429V1.43757H14.0714L14.0852 1.46413L14.1474 1.49734L14.1819 1.51062L14.2096 1.53054L14.2648 1.54382V1.5571H14.2925L14.2994 1.57039L14.3201 1.57703L14.3408 1.59695L14.4099 1.63679L14.4651 1.65672L14.4997 1.68992L14.5549 1.71648L14.5826 1.72313V1.73641L14.624 1.74305V1.75633L14.6516 1.76297L14.6586 1.78289H14.6793L14.6862 1.79618L14.7207 1.80946L14.7691 1.84266L14.8243 1.86922L14.9072 1.91571L14.9279 1.92235L14.9556 1.94891L14.997 1.96884L15.0454 1.98212L15.0868 2.00204L15.0937 2.02196H15.1214V2.03525H15.149L15.1697 2.05517L15.1904 2.06845V2.08173L15.225 2.09501L15.3562 2.16142L15.4115 2.18134V2.20127L15.4736 2.21455L15.4805 2.22783L15.5151 2.23447V2.26103L15.5496 2.27432L15.6394 2.32744L15.7223 2.36065L15.7637 2.37393L15.7706 2.38721L15.7983 2.40049V2.41377L15.8397 2.42705L15.8673 2.44698L15.9088 2.45362V2.4669L15.9364 2.47354L15.971 2.50675L16.0469 2.53995L16.0538 2.55323L16.0884 2.56651L16.116 2.59308L16.1505 2.60636L16.1989 2.63292L16.3232 2.69933L16.3301 2.72589L16.3785 2.73253L16.4407 2.77238V2.78566L16.489 2.7923L16.5512 2.82551L16.6133 2.86535L16.6548 2.88527L16.6962 2.91184L16.7308 2.92512L16.7791 2.95832L16.8344 2.98489L16.9173 3.03137L16.938 3.03801L16.9656 3.06458L17.0209 3.09114L17.09 3.13762L17.1314 3.15091L17.2005 3.18411V3.19739L17.235 3.21067L17.3662 3.27708L17.4215 3.31693L17.4768 3.34349L17.5251 3.37005L17.5873 3.40326L17.6495 3.4431L17.6909 3.45639V3.46967L17.7254 3.48295L17.7945 3.51615L17.8014 3.54272H17.8359V3.56264L17.8705 3.56928V3.58256L17.9188 3.5892L17.981 3.62241L18.0155 3.63569L18.0432 3.66225L18.1261 3.7021V3.72202H18.1606L18.202 3.74194L18.2366 3.74858L18.2435 3.77515L18.2711 3.78179L18.3333 3.81499L18.4369 3.8814L18.5543 3.93453L18.575 3.95445L18.6234 3.98101L18.6717 4.00093V4.01422L18.7339 4.03414L18.7823 4.06734L18.8444 4.10055L18.8928 4.12711L18.9135 4.14039L18.9549 4.14703L18.9757 4.18024L19.0171 4.20016L19.0724 4.2068L19.0793 4.23336L19.1138 4.24665L19.2105 4.30641L19.2796 4.34626V4.35954H19.3072V4.37946L19.3625 4.3861L19.3832 4.39938V4.41931L19.4246 4.42595L19.4868 4.45251L19.5214 4.48572V4.499L19.5697 4.50564L19.6319 4.53884L19.6802 4.56541L19.7838 4.62517L19.8598 4.65838V4.67166L19.8874 4.6783L19.9634 4.72479L19.9911 4.73807V4.75799H20.0256L20.0739 4.78455L20.1085 4.79784V4.81112L20.1361 4.81776L20.1776 4.84432L20.2121 4.8576L20.2604 4.89081L20.3433 4.93065L20.3502 4.95722L20.3986 4.96386L20.4538 4.99042L20.5091 5.03026L20.5298 5.03691V5.05683L20.5644 5.06347L20.6473 5.10331L20.6887 5.12988L20.7716 5.16972L20.8199 5.19629L20.8821 5.22949L20.9581 5.27598L20.9857 5.2959L21.0479 5.30918V5.32246L21.0755 5.3291L21.0824 5.34903L21.11 5.35567L21.1722 5.38887V5.40215L21.2137 5.40879L21.2206 5.42872L21.2551 5.442L21.2896 5.46192V5.4752H21.3173V5.49512L21.3518 5.50176V5.51505L21.4002 5.52169L21.4209 5.53497L21.4692 5.54825L21.5107 5.56817L21.5452 5.5881V5.60802L21.5797 5.6213L21.6419 5.6545L21.6903 5.68107L21.711 5.68771V5.70099L21.7455 5.71427L21.7524 5.73419L21.8146 5.74748L21.8215 5.77404L21.8699 5.78068L21.9182 5.81388L21.9735 5.84045V5.85373L22.008 5.86037L22.0425 5.88029L22.0771 5.89357L22.1185 5.9135L22.1254 5.92678L22.1876 5.95998L22.2221 5.97326L22.2498 5.98655V5.99983L22.2912 6.01311L22.3534 6.04631L22.4086 6.07952L22.4294 6.08616L22.457 6.11272L22.5399 6.15257V6.17249L22.5744 6.17913L22.6366 6.20569L22.7057 6.24554L22.7609 6.2721L22.8093 6.30531L22.83 6.31195V6.33187L22.8714 6.33851L22.9336 6.37836L22.9681 6.39164L22.9958 6.42484L23.051 6.47133L23.1615 6.57758L23.1892 6.61078L23.2099 6.62407V6.63735H23.2237L23.2375 6.66391L23.2582 6.67719L23.2721 6.72368L23.3273 6.79673L23.3964 6.92955L23.4171 6.98267V7.01588H23.4309L23.4586 7.10885L23.4724 7.17526L23.4862 7.25495L23.5 7.38776V18.2057L23.4862 18.3186L23.4793 18.3252L23.4724 18.385L23.4586 18.4049L23.4516 18.478L23.4309 18.4846V18.551H23.4102V18.6108L23.3757 18.7038L23.3549 18.7502L23.3342 18.7702L23.3066 18.8299H23.2859L23.279 18.8631L23.2651 18.8897H23.2444L23.2375 18.9229L23.2168 18.9295L23.203 18.9627L23.1823 18.9694L23.1754 18.996L23.1477 19.0292L23.0925 19.0756L23.0096 19.1553L22.975 19.1753L22.9543 19.1952L22.9336 19.2085H22.9129L22.906 19.2284H22.8852V19.2417L22.8507 19.2549V19.2682L22.7885 19.3014H22.7678V19.3147L22.7264 19.328H22.6987V19.3479L22.6504 19.3878L22.5951 19.4077L22.5399 19.4409L22.4915 19.4675L22.4363 19.494L22.3948 19.5206L22.3465 19.5272V19.5405L22.2498 19.6003L22.2083 19.6202L22.1945 19.6401L22.1254 19.6667H22.0978V19.6866L22.0425 19.7132L22.0218 19.7198V19.7331L22.0011 19.7397L21.9873 19.7597L21.932 19.7796L21.8353 19.8261L21.8146 19.8526L21.7455 19.8792V19.8925L21.6765 19.9257L21.6212 19.9456H21.6005V19.9589L21.559 19.9655V19.9854H21.5176V20.0054L21.483 20.0253L21.4485 20.0386L21.4416 20.0518L21.414 20.0651H21.3794L21.3725 20.0851L21.338 20.105L21.3173 20.1183H21.2965V20.1315L21.2344 20.1515V20.1647L21.2137 20.1714L21.1791 20.2046L21.1239 20.2245L21.0893 20.2444H21.0617V20.2577L21.0064 20.2909L20.9443 20.3175L20.9305 20.3374L20.8821 20.344H20.737L20.7301 20.3374L20.668 20.3308L20.5851 20.2909V20.2776L20.5505 20.2644L20.4815 20.1979L20.44 20.1183V20.0452H20.4262L20.4193 20.0186L20.4124 10.3097L20.3848 10.3031L20.3779 10.3297L20.3226 10.3562L20.2604 10.3961L20.2121 10.4027V10.4226L20.1016 10.4758L20.0947 10.489H20.0739V10.5023L19.998 10.5355L19.9703 10.5554L19.922 10.5621V10.5754L19.8874 10.5886V10.6019L19.8046 10.6418L19.7424 10.6816H19.7148V10.6949L19.6388 10.7414L19.5766 10.7746L19.549 10.8012L19.5421 10.8144L19.4523 10.841L19.4108 10.8609H19.3832V10.8808L19.3487 10.8875V10.9008L19.2865 10.934L19.1829 10.9937H19.1622V11.007L19.1345 11.0203H19.0931V11.0402L19.0586 11.0535V11.0668L18.9964 11.0934L18.9549 11.1199L18.9204 11.1332L18.8928 11.1531L18.8444 11.1598V11.1797L18.7684 11.2195H18.7477V21.2074L18.7408 21.3003L18.6925 21.4398L18.5958 21.5792L18.5336 21.6456L18.4714 21.6921L18.4231 21.732L18.354 21.7585H18.3264V21.7785L18.2987 21.7851L18.2918 21.805L18.2366 21.8382L18.1813 21.8582L18.1261 21.8914L18.0777 21.898L18.0708 21.9179H18.0363V21.9378L17.981 21.9711L17.8981 22.0109L17.8359 22.0507L17.7738 22.0839L17.7323 22.1105L17.684 22.1171V22.1371L17.5735 22.1902L17.5666 22.2035L17.5251 22.2234H17.5113L17.5044 22.2433L17.4215 22.2765L17.3801 22.3031H17.3662L17.3593 22.323L17.2972 22.3496L17.2212 22.3894L17.1936 22.4093L17.1452 22.4359L17.09 22.4625L17.0692 22.4691V22.4824L17.0071 22.5156L16.9449 22.5422L16.9035 22.5687L16.8551 22.5754V22.5953L16.8206 22.6019V22.6152L16.7998 22.6219L16.7653 22.6551L16.71 22.675L16.6755 22.6949L16.641 22.7082L16.6341 22.7215L16.5995 22.7414L16.5512 22.7613L16.5097 22.7879L16.4338 22.8277L16.3992 22.8344V22.8476L16.344 22.8742H16.3163L16.3094 22.9074L16.2956 22.9207L16.2403 22.934H16.192V22.9539L16.1298 22.9605H16.0193L15.9571 22.9539L15.9502 22.934H15.895L15.8535 22.9074L15.819 22.8941L15.7845 22.8476L15.7637 22.8344V22.8144H15.7499L15.7154 22.7547L15.7016 22.6949L15.6947 22.6883L15.6878 11.3391H15.6739L15.6601 11.2594L15.6463 11.2129V11.1996H15.6325L15.6256 11.1598H15.6118L15.5841 11.1L15.5634 11.0601L15.5358 11.0336L15.5013 10.9805L15.4667 10.9539L15.446 10.9273L15.4184 10.9141L15.3838 10.8742L15.3009 10.8211L15.225 10.7812L15.1904 10.7547L15.1421 10.7347L15.1075 10.7082L15.0592 10.6883L15.0177 10.6617L14.9349 10.6219L14.9072 10.6152V10.6019L14.8727 10.5886L14.7898 10.5355L14.7276 10.5023L14.6862 10.4824V10.4691L14.6586 10.4625L14.5619 10.416L14.5135 10.3828L14.4099 10.323L14.3684 10.3031L14.3063 10.2632L14.2579 10.2566L14.251 10.23L14.2234 10.2234L14.1474 10.1836L14.1267 10.1703V10.1437H14.0922L14.0852 10.1238H14.0507L14.0231 10.1039V10.0839H13.9885L13.9816 10.064L13.9471 10.0574L13.8987 10.0441L13.8366 10.0109L13.7951 9.98433L13.7122 9.94449L13.657 9.91128L13.6363 9.89136L13.581 9.8648V9.85152L13.5465 9.84487L13.5188 9.83159L13.505 9.81167L13.4567 9.79839L13.4014 9.77183L13.3945 9.7519L13.36 9.74526L13.2909 9.70542L13.2287 9.67221L13.1873 9.65893V9.64565L13.1527 9.63237L13.1044 9.59916L13.0491 9.5726L13.0077 9.54604L12.9662 9.52611L12.9317 9.49955L12.8972 9.48627L12.8488 9.45306L12.8212 9.44642V9.43314L12.759 9.41322L12.7176 9.38666L12.6761 9.36673V9.35345L12.6485 9.34681L12.5518 9.30033L12.538 9.2804L12.5035 9.26712V9.25384L12.4689 9.2472L12.3998 9.21399L12.3929 9.20071L12.3584 9.18743L12.2824 9.14759L12.2548 9.14095V9.12766L12.2203 9.11438L12.1857 9.09446L12.165 9.07454L12.1166 9.05461V9.02805H12.0821L12.0338 8.99485L12.013 8.98821V8.96828H11.9785L11.9716 8.94836L11.944 8.94172L11.8818 8.9218L11.8265 8.89523L11.7851 8.86867L11.7229 8.83547L11.7091 8.82219L11.6608 8.80226L11.6262 8.7757L11.5779 8.75578V8.73585L11.5364 8.72921L11.5088 8.71593L11.495 8.69601L11.4604 8.68273V8.66945L11.4328 8.6628V8.64952L11.4052 8.64288L11.3706 8.62296V8.60968H11.3361L11.3292 8.58976H11.2808L11.2049 8.54991L11.1703 8.52335L11.122 8.50342L11.0736 8.47686L10.97 8.41709L10.9217 8.38389L10.8871 8.37061L10.825 8.3374V8.31084H10.7697L10.7352 8.28428L10.6868 8.26435L10.6316 8.22451L10.5625 8.20459L10.5279 8.16474L10.4934 8.15146V8.13818L10.4589 8.13154L10.3898 8.09169L10.3345 8.06513L10.2862 8.03857V8.02528H10.2516L10.1757 7.9788L10.1549 7.95888L10.1066 7.93895L10.003 7.87254V7.85262H9.96845L9.96154 7.8327L9.93391 7.82606L9.84411 7.80614L9.83721 7.77957L9.80958 7.77293L9.68524 7.70652L9.63689 7.67996L9.61617 7.66004L9.56782 7.64012L9.50565 7.61355L9.38823 7.53386L9.33987 7.51394L9.30534 7.5073L9.29843 7.48074L9.2708 7.47409L9.23626 7.44089L9.20173 7.42761V7.41433H9.15338L9.0843 7.36784L9.06358 7.3612L9.05667 7.34792L9.00141 7.328L8.91852 7.27487L8.87708 7.25495L8.8011 7.2151L8.77347 7.20846V7.19518L8.73203 7.18854V7.16862L8.69058 7.15533L8.62151 7.10885L8.55243 7.08228L8.47645 7.02916L8.44192 7.01588V7.00259L8.40738 6.99595L8.3383 6.95611L8.27614 6.9229L8.23469 6.90962V6.89634L8.20016 6.88306L8.16562 6.86314L8.1449 6.84321L8.07582 6.81665L8.04819 6.79009L7.98603 6.76352L7.91005 6.72368L7.90314 6.70376L7.8686 6.69712L7.79953 6.65727L7.73736 6.62407L7.73046 6.5975H7.70283V6.58422L7.66138 6.57094V6.55766L7.62684 6.55102L7.55777 6.52445L7.50942 6.49789L7.47488 6.49125V6.47133L7.44725 6.46469L7.40581 6.4514V6.43812L7.37127 6.42484L7.32983 6.39164L7.24694 6.35179L7.19168 6.33187L7.15714 6.29867L7.06044 6.25218L7.04662 6.23226L6.97755 6.20569L6.97064 6.18577L6.93611 6.17913L6.90157 6.15257L6.86703 6.13929L6.79105 6.09944L6.76342 6.0928L6.75651 6.07288L6.70816 6.05295L6.62527 6.00647L6.57692 5.97326L6.53548 5.95998L6.48022 5.92678L6.43187 5.90021V5.88693L6.39733 5.88029L6.32826 5.84045L6.26609 5.80724L6.21774 5.77404L6.16939 5.75412L6.0865 5.70763L6.03815 5.69435V5.68107L6.01743 5.67443L5.98289 5.64122V5.6213L5.94144 5.61466V5.60138L5.91381 5.59474L5.87928 5.58145V5.56153H5.84474L5.83783 5.54161L5.79639 5.53497V5.52169H5.75495L5.72732 5.50841L5.72041 5.48184H5.69278V5.46192H5.65824L5.65133 5.44864L5.6237 5.442V5.42872L5.58917 5.42207V5.40215H5.55463L5.54772 5.38223H5.51319L5.46484 5.34903L5.4303 5.33574V5.32246L5.40267 5.31582V5.30254L5.37504 5.2959L5.3405 5.28262V5.26269H5.29906V5.24277L5.25071 5.23613L5.22308 5.21621L5.17473 5.19629L5.154 5.16308V5.14316L5.13328 5.13652L5.12637 5.09003H5.11256V5.06347H5.09874L5.07802 4.95057L5.07111 4.93065L5.08493 4.79784L5.10565 4.73807L5.13328 4.68494L5.17473 4.63846L5.20926 4.62517L5.21617 4.60525L5.31287 4.55876L5.36122 4.5322L5.40958 4.51228L5.42339 4.49236L5.49246 4.45915L5.50628 4.44587H5.527V4.43259L5.58226 4.40603L5.69278 4.34626L5.70659 4.32634L5.77567 4.31305V4.29977L5.8102 4.28649V4.26657L5.85856 4.25329L5.92072 4.22672L5.94144 4.2068L5.98289 4.18024H5.9967V4.16696L6.04505 4.14703L6.06578 4.12711L6.10722 4.11383L6.16939 4.08062H6.21774V4.06734L6.25228 4.0607L6.25918 4.04078L6.27991 4.03414L6.29372 4.01422L6.35589 4.00758V3.98765H6.39733V3.96773L6.43187 3.96109L6.43878 3.94781H6.4595L6.46641 3.92124L6.50785 3.90132L6.52166 3.8814L6.60455 3.84819L6.61837 3.82827L6.66672 3.80171L6.68053 3.78843L6.74961 3.76186L6.79105 3.7353H6.81177V3.72202H6.82559V3.70874L6.93611 3.65561L7.019 3.60912L7.08807 3.58256L7.14333 3.54936L7.19168 3.54272L7.19859 3.52279H7.22622V3.50951L7.25385 3.49623L7.26075 3.48295H7.29529V3.46967L7.33673 3.45639L7.36436 3.4431V3.42982L7.3989 3.4099L7.41272 3.38998H7.42653V3.37005L7.61994 3.33685L7.64066 3.33021L7.72355 3.32357H7.79953L7.84788 3.33021V3.34349H7.96531L8.03438 3.37005L8.07582 3.38334L8.09655 3.39662L8.15871 3.41654L8.31068 3.50951L8.36593 3.53608L8.37284 3.56264L8.42119 3.56928L8.48336 3.60248L8.51099 3.62241L8.55934 3.62905L8.56625 3.65561L8.59388 3.66225L8.63532 3.67553V3.69546L8.66986 3.70874L8.73203 3.74194L8.81491 3.78179V3.79507L8.84254 3.80171L8.91852 3.84819L9.00141 3.89468L9.02213 3.90796V3.92124L9.06358 3.92789L9.09121 3.94117V3.96109L9.12575 3.96773V3.98101L9.1741 3.98765L9.25008 4.03414L9.31224 4.0607L9.35369 4.08727L9.41586 4.12047L9.4573 4.14039L9.49874 4.16696L9.51947 4.1736L9.52637 4.18688L9.58163 4.20016L9.60235 4.22008L9.67143 4.24665V4.26657L9.70597 4.27985L9.73359 4.29977L9.78195 4.31969V4.33298L9.81648 4.34626L9.89246 4.3861L9.97535 4.43259L10.0582 4.47243L10.0859 4.499L10.1688 4.53884V4.55876H10.2033L10.2516 4.58533L10.3553 4.6451L10.376 4.65174L10.3829 4.6783H10.4312V4.69158L10.5003 4.70486V4.71815L10.5279 4.72479L10.5625 4.75799L10.6385 4.79119L10.6454 4.80448L10.6799 4.81776V4.83104L10.7075 4.83768L10.749 4.86424L10.8181 4.88417L10.825 4.89745L10.8595 4.91073L10.8664 4.93065L10.894 4.94393L10.9631 4.98378V4.99706H10.9907V5.01698L11.0322 5.02362V5.03691L11.0736 5.04355L11.1013 5.06347L11.1427 5.07675L11.2463 5.14316L11.2808 5.15644L11.3223 5.17636L11.3637 5.20293L11.4466 5.24277L11.571 5.32246V5.34238H11.6262L11.716 5.39551L11.7436 5.41543L11.792 5.43536V5.44864L11.8265 5.46192L11.9025 5.50176L11.9647 5.53497L12.013 5.54825V5.56153L12.0407 5.56817L12.0476 5.5881L12.0752 5.59474L12.1166 5.6213L12.1512 5.63458L12.1788 5.66114L12.2133 5.67443L12.2548 5.69435L12.3239 5.74083L12.3584 5.75412L12.4068 5.78732L12.4275 5.79396V5.81388H12.4758L12.5104 5.84045L12.5449 5.85373L12.5518 5.86701L12.5863 5.88693L12.6347 5.9135L12.69 5.93342V5.9467L12.7176 5.95334L12.759 5.97991L12.7936 5.99319L12.8212 6.00647V6.01975L12.8626 6.03303L12.9248 6.06624L12.9801 6.09944L13.0008 6.10608L13.0077 6.11936L13.0422 6.13264V6.15921H13.0837L13.1527 6.20569L13.2564 6.24554L13.2633 6.26546L13.3254 6.28538L13.3807 6.32523L13.4359 6.35179L13.4843 6.37836L13.5603 6.42484L13.6086 6.4514L13.657 6.46469L13.6639 6.48461L13.6915 6.49125L13.7537 6.53109L13.802 6.55102V6.5643L13.8366 6.57758L13.9126 6.61743L13.9747 6.65063L14.0162 6.67055L14.0507 6.67719L14.0576 6.70376L14.0852 6.7104L14.1267 6.72368V6.7436L14.1612 6.75688L14.251 6.81001L14.2994 6.81665L14.3063 6.82993L14.3408 6.84321L14.3477 6.86314L14.3892 6.87642L14.4168 6.90298L14.4928 6.93619L14.548 6.95611L14.5549 6.96939L14.5895 6.98267L14.624 7.00259V7.01588L14.6586 7.02252L14.6931 7.05572V7.069L14.7484 7.08228L14.8036 7.11549V7.12877L14.8451 7.13541L14.9072 7.16862L14.9556 7.19518L15.0316 7.24166L15.1006 7.28151L15.1628 7.30807L15.225 7.34792L15.2733 7.36784V7.38112L15.3078 7.3944L15.4391 7.46081L15.4736 7.48738L15.5496 7.52058L15.5772 7.54714L15.5911 7.55378V7.56707L15.6601 7.57371L15.6739 7.60027L15.7016 7.60691L15.7637 7.64012V7.6534L15.8052 7.66004L15.8466 7.67332V7.69988L15.8812 7.70652L15.9571 7.73973L15.9641 7.75965L15.9917 7.77293L16.0884 7.8327V7.84598L16.1229 7.85262V7.8659L16.1713 7.87254L16.2058 7.89247L16.2334 7.90575V7.92567L16.2818 7.93231L16.3025 7.93895V7.95223L16.344 7.96552L16.4061 7.99872L16.5235 8.07177V8.08505L16.5719 8.09169L16.6686 8.14482L16.7515 8.19795L16.7998 8.21787L16.8068 8.24443H16.8413L16.8482 8.26435L16.8965 8.271L16.9449 8.29756L17.0002 8.33076L17.0209 8.3374L17.0485 8.36397L17.09 8.38389L17.1383 8.39717L17.1452 8.41709L17.1728 8.42373L17.2074 8.44366L17.2557 8.43702L17.3041 8.41709L17.3386 8.38389L17.3939 8.35733L17.4422 8.33076H17.456V8.31084L17.6011 8.25107L17.6425 8.24443L17.6495 8.23115L17.6771 8.22451L17.6909 8.20459H17.7047L17.7116 8.18466L17.76 8.16474L17.7876 8.1581L17.7945 8.13154L17.8498 8.11162L17.8567 8.10497H17.8981L17.905 8.08505L17.9257 8.07177H17.9603V8.05185L18.0017 8.03192L18.0639 7.99208L18.0846 7.97216L18.1468 7.93895L18.1675 7.92567H18.2159V7.91239H18.2504L18.2573 7.88583L18.3264 7.85262H18.354L18.3609 7.82606L18.4438 7.78621H18.4576L18.4714 7.75965L18.5198 7.72645L18.575 7.69988L18.6165 7.67332L18.6994 7.63347L18.7063 7.62683H18.7546V7.61355L18.7892 7.60691L18.7961 7.58699L18.8168 7.58035L18.8237 7.56707L18.8513 7.56043V7.51394L18.8237 7.5073L18.7408 7.47409L18.6234 7.41433L18.6027 7.40105V7.38112L18.5612 7.36784V7.35456L18.5267 7.34792L18.4991 7.33464V7.31471H18.4645L18.4576 7.29479H18.4162L18.3471 7.25495L18.3057 7.23502L18.2435 7.20182L18.1951 7.18854L18.1882 7.16197L18.1606 7.15533L18.0846 7.11549L18.0432 7.09557L18.0155 7.08893V7.07564L17.981 7.06236L17.9465 7.02916L17.8912 7.00924L17.8705 6.99595V6.98267L17.8359 6.97603L17.7531 6.92955L17.6978 6.90962L17.6909 6.89634L17.6633 6.8897V6.87642L17.6287 6.86314L17.5942 6.84321L17.5735 6.82329L17.5251 6.80337V6.78345L17.4975 6.77681L17.4837 6.76352L17.4491 6.75024L17.4077 6.73032V6.71704L17.3801 6.7104V6.69712L17.3455 6.69048L17.3179 6.67719V6.65727H17.2834L17.2765 6.63735H17.2419L17.235 6.61743H17.1936L17.1314 6.58422V6.55766H17.0969L17.09 6.53774L17.0554 6.53109L17.0278 6.51781V6.49789H16.9932L16.9863 6.47797H16.9518L16.9035 6.45805L16.8758 6.4514L16.8689 6.43148L16.7929 6.41156V6.39164H16.7653L16.7584 6.36507L16.717 6.35179L16.6133 6.29867L16.5443 6.25218L16.4959 6.22562L16.4476 6.20569L16.4407 6.18577L16.3785 6.16585L16.3025 6.126L16.2611 6.09944L16.192 6.07288V6.0596L16.1575 6.04631L16.1436 6.03303L16.0953 6.01311L16.0538 5.98655V5.96662L16.0262 5.95998L15.9848 5.93342V5.92014H15.9502V5.90021H15.9157L15.9088 5.88029L15.8743 5.87365L15.819 5.85373L15.7568 5.83381V5.81388L15.6532 5.77404V5.76076L15.6187 5.74748L15.5841 5.72755L15.5634 5.70763L15.5427 5.69435V5.68107H15.5151V5.66779L15.4805 5.66114L15.4184 5.62794L15.3493 5.60138L15.2457 5.53497L15.1628 5.49512L15.1144 5.4752V5.46192L15.0799 5.44864L15.0316 5.41543L15.0108 5.40879L15.0039 5.39551L14.9694 5.38223V5.36895L14.9349 5.36231L14.852 5.32246L14.8243 5.31582V5.30254L14.7898 5.28926L14.7484 5.26269L14.7138 5.25605L14.7069 5.22949L14.6793 5.22285L14.6033 5.183L14.5688 5.15644L14.5342 5.14316L14.4582 5.10331L14.3892 5.05683L14.327 5.03026L14.3201 5.01698L14.2441 4.99706V4.98378L14.2165 4.97714L14.2096 4.96386L14.1474 4.93065L14.1129 4.91073L14.0922 4.89081L14.0438 4.87088L13.9678 4.81776L13.9126 4.79784L13.8573 4.77127L13.8435 4.75135L13.7744 4.72479L13.7122 4.68494L13.6501 4.65174L13.6363 4.63846L13.5879 4.61853L13.5534 4.59197L13.4981 4.56541V4.55212L13.4636 4.54548L13.3807 4.50564L13.3254 4.46579L13.2771 4.44587V4.43259L13.2149 4.41267L13.1666 4.37946L13.1458 4.37282L13.1389 4.3529L13.1113 4.34626V4.33298L13.0699 4.31969V4.30641L13.0353 4.29977L13.0077 4.28649V4.26657H12.9732L12.9662 4.24665H12.9248L12.8972 4.23336L12.8834 4.21344L12.835 4.20016L12.7797 4.16696L12.7383 4.14703L12.7038 4.14039L12.6969 4.11383L12.6692 4.10719L12.5932 4.06734L12.5587 4.04078L12.4896 4.02086V4.00093L12.462 3.99429L12.386 3.95445L12.3515 3.92124L12.2962 3.90132L12.241 3.86812L12.1719 3.84155V3.82827L12.1374 3.81499L12.0545 3.7685L11.9854 3.72202L11.944 3.70874L11.8887 3.67553L11.8403 3.66225V3.64233H11.8196V3.62905L11.7851 3.61577L11.7022 3.56928L11.64 3.53608L11.6262 3.52279L11.5779 3.50287L11.495 3.45639L11.4466 3.42982V3.41654L11.4121 3.4099L11.3706 3.38998L11.343 3.38334V3.37005L11.3085 3.35677L11.267 3.33021L11.2325 3.32357L11.2256 3.29701L11.198 3.29036L11.1358 3.25716V3.24388L11.1013 3.2306V3.21732L11.0598 3.20403V3.19075L11.0253 3.18411L10.9976 3.17083V3.15091H10.9631L10.9562 3.13098H10.9217L10.9148 3.11106H10.8733L10.8388 3.0845L10.8042 3.07122L10.7283 3.03137L10.6868 3.00481L10.6039 2.96496L10.5832 2.95168V2.9384L10.5556 2.93176L10.5141 2.91184L10.4381 2.87199L10.4105 2.86535V2.85207L10.376 2.83879L10.3691 2.81886L10.3345 2.81222L10.2931 2.7923L10.2655 2.78566V2.76574L10.1619 2.72589V2.71261L10.1273 2.69933L10.079 2.67277L10.0513 2.66613L10.0237 2.63956L9.98917 2.61964L9.927 2.57979L9.87865 2.53331L9.83721 2.4669L9.80958 2.41377L9.80267 2.40713V2.22119L9.81648 2.15478L9.83721 2.10829L9.85793 2.07509L9.89246 2.04189L9.927 2.01532L9.96154 1.97548L9.98226 1.9622H10.003V1.94891L10.0859 1.91571L10.1135 1.90243L10.1273 1.88251H10.148L10.1619 1.85594L10.2586 1.82274L10.2724 1.80282L10.3069 1.78953L10.3553 1.75633H10.3691V1.73641L10.4312 1.71648L10.4796 1.68328L10.521 1.67L10.597 1.62351L10.6592 1.59031L10.7075 1.56375H10.7283V1.55046L10.7559 1.54382L10.7697 1.5239L10.8042 1.51726V1.49734L10.8526 1.47741L10.894 1.45749H10.9078V1.43757L10.97 1.41765L11.0391 1.39108H11.0667L11.0736 1.36452H11.0943L11.1013 1.3446H11.122V1.33132L11.1703 1.31139L11.1841 1.29147L11.2256 1.27155H11.2394V1.25827L11.2878 1.23834L11.3292 1.21842L11.3776 1.1985L11.4328 1.1653L11.4604 1.15201L11.4743 1.13209L11.5295 1.10553L11.5986 1.06568H11.6193L11.6331 1.03912L11.7367 0.999274V0.979352L11.8058 0.96607L11.8611 0.926225H11.8818V0.899661L11.9301 0.88638L12.0268 0.853176L12.0683 0.839894L12.1512 0.819971L12.1995 0.813331H12.2962L12.3239 0.800049Z" fill="#0190DB"/>
<path d="M2.94364 5.95334H3.11633L3.14396 5.95998V5.97326H3.26138L3.35808 6.00647L3.44097 6.05295L3.49623 6.0928L3.55149 6.11936L3.64129 6.17249L3.75181 6.22562L3.76562 6.2389L3.80016 6.25218L3.8416 6.27874L3.86232 6.28538L3.88305 6.30531L3.94521 6.33851L4.03501 6.39164L4.08336 6.39828L4.09027 6.42484L4.1179 6.43148L4.15243 6.4514L4.18697 6.45805L4.22151 6.49125L4.29058 6.52445L4.3044 6.53774L4.33893 6.55102L4.34584 6.5643L4.36656 6.57094V6.59086L4.4011 6.5975L4.4978 6.63735L4.51852 6.65063V6.66391L4.58069 6.68383L4.62904 6.71704L4.69121 6.75024L4.78791 6.80337L4.82245 6.82993L4.87771 6.8565L4.90534 6.87642V6.8897L4.93987 6.89634L5.00895 6.92955L5.0573 6.94947V6.96275L5.09184 6.97603L5.16782 7.01588L5.22998 7.04908L5.27834 7.06236V7.07564L5.30597 7.08228L5.31287 7.10221L5.3405 7.10885L5.37504 7.12213L5.40267 7.14869L5.47865 7.18854L5.52009 7.20846L5.56154 7.22174V7.23502L5.59608 7.24831L5.63061 7.27487L5.70659 7.30807V7.32135L5.73422 7.328L5.79639 7.36784L5.90691 7.42097L5.92072 7.43425L5.95526 7.44753V7.46081L5.98289 7.46745L6.04505 7.5073L6.09341 7.51394L6.10031 7.5405L6.16939 7.55378V7.56707L6.19702 7.57371L6.23155 7.60691L6.29372 7.64676L6.37661 7.6866V7.70652H6.41115L6.4595 7.73309L6.56311 7.79285L6.59765 7.80614L6.63909 7.8327L6.70126 7.8659L6.74961 7.89247L6.80487 7.91903L6.8325 7.94559L6.87394 7.96552L6.92229 7.9788L6.9292 7.99872L6.95683 8.00536L7.019 8.04521L7.06735 8.06513V8.07841L7.12951 8.09833L7.17786 8.13154L7.24003 8.16474L7.28838 8.19795L7.34364 8.21787L7.37127 8.24443L7.42653 8.26435L7.4887 8.3042L7.53014 8.32412L7.56468 8.33076L7.5854 8.35069L7.64066 8.39053L7.71664 8.42373L7.74427 8.4503L7.77881 8.47022V8.4835L7.82716 8.49014L7.88242 8.51671L7.90314 8.53663L7.96531 8.56319V8.57647L7.99294 8.58311V8.60304H8.02747L8.06892 8.62296L8.11727 8.65616L8.21397 8.70265L8.25542 8.72921L8.27614 8.73585L8.28305 8.74914L8.31758 8.76242L8.34521 8.78234L8.39356 8.80226L8.43501 8.82219L8.46954 8.83547V8.85539L8.53171 8.87531L8.53862 8.89523L8.57316 8.90852L8.7044 8.97492L8.7113 9.00149L8.75275 9.00813L8.81491 9.04133L8.86327 9.0679L8.97378 9.12102L9.06358 9.18079L9.13265 9.21399L9.13956 9.24056H9.1741V9.26048L9.20863 9.26712V9.2804L9.25008 9.28704V9.30033L9.29843 9.30697L9.31915 9.32025V9.34017L9.35369 9.34681L9.41586 9.37337L9.47111 9.39994L9.50565 9.4265L9.54019 9.43978L9.56782 9.45306V9.46635L9.60926 9.47963L9.65071 9.50619L9.68524 9.51947L9.74741 9.55932V9.57924L9.79576 9.58588L9.81648 9.59916L9.86484 9.61245L9.87174 9.63237L9.89937 9.63901L9.94082 9.65229V9.67221L10.003 9.69214L10.0099 9.71206L10.0721 9.73198L10.1204 9.76518L10.1826 9.79839L10.2793 9.85152L10.3138 9.87808L10.3691 9.90464L10.4381 9.95113L10.5072 9.96441L10.5279 9.98433L10.5487 9.99761V10.0109L10.5832 10.0242L10.6592 10.064L10.7214 10.0972L10.7697 10.1238L10.8457 10.1703L10.9148 10.2101L11.0115 10.2566L11.0529 10.2699V10.2832L11.0874 10.2965L11.122 10.323L11.1772 10.3496L11.2601 10.3961V10.416L11.3085 10.4226L11.3637 10.4492L11.3845 10.4691L11.4673 10.509L11.5364 10.5554L11.5848 10.5621L11.5917 10.5886L11.6193 10.5953L11.6953 10.6351L11.7367 10.6551L11.7644 10.6816L11.8403 10.7215L11.868 10.7347V10.7547L11.9025 10.7613L11.9647 10.7879L12.0338 10.8277L12.089 10.8543L12.1374 10.8875L12.2341 10.934L12.3239 10.9937L12.386 11.007L12.4137 11.0336L12.4827 11.0734L12.5104 11.0934L12.5587 11.1133V11.1266L12.5932 11.1398L12.7245 11.2062L12.759 11.2328L12.835 11.266L12.8419 11.2793L12.8903 11.2926L12.9801 11.3523L13.0215 11.3723L13.0975 11.4188L13.1527 11.4453L13.1597 11.4719L13.208 11.4785L13.2702 11.5184V11.5316L13.3185 11.5383L13.3945 11.5781L13.4221 11.5848V11.6047L13.4567 11.618L13.5465 11.6711L13.5879 11.691L13.5948 11.711L13.6224 11.7176V11.7309L13.6708 11.7375L13.7053 11.7574L13.7537 11.7973V11.8106L13.7813 11.8172L13.8504 11.8836L13.8711 11.8903V11.9102L13.8918 11.9168L13.9333 11.9899L13.9471 12.0031L13.9609 12.0364L13.9816 12.0895V12.1559H13.9954L14.0093 12.2157L14.0162 12.2223V12.2555H14.03V14.8255H14.0162L14.0093 14.8654L13.9954 14.8853L13.9816 14.9251L13.9471 14.965L13.9126 14.9982L13.878 15.0247L13.8435 15.038L13.8366 15.0513L13.7261 15.0845H13.5672L13.505 15.0646V15.0513L13.4429 15.0447L13.3392 14.9915L13.2978 14.965L13.2702 14.9583V14.945L13.2356 14.9318L13.2287 14.9118L13.1942 14.9052L13.1251 14.8654L13.063 14.8255L13.0215 14.8122L12.9524 14.7724L12.9317 14.7525L12.8626 14.7259L12.8143 14.6993L12.7383 14.6528L12.69 14.6263V14.613L12.6554 14.6064L12.614 14.5798L12.5311 14.5399L12.4896 14.5134V14.4868H12.4551L12.4482 14.4669H12.4137L12.386 14.447V14.4271H12.3515L12.3446 14.4071H12.31L12.3031 14.3939L12.2686 14.3806L12.2203 14.3673L12.1926 14.3606V14.3474L12.1581 14.3341L12.1305 14.3075L12.013 14.2478L11.9716 14.2278V14.2145L11.944 14.2079L11.8473 14.1614L11.7989 14.1282L11.7575 14.1149L11.7229 14.1017V14.0817L11.6953 14.0751L11.6331 14.0352L11.6262 14.0087L11.5986 14.002V13.9888H11.5641L11.5571 13.9688H11.5226L11.5157 13.9489H11.4881V13.9356L11.4328 13.929L11.3914 13.9091L11.3637 13.9024V13.8891L11.3292 13.8759L11.267 13.836L11.2187 13.8095V13.7962L11.1841 13.7895L11.1427 13.7696L11.1151 13.763V13.743L11.0805 13.7298L10.9976 13.6899L10.9424 13.6567L10.9217 13.6368L10.8526 13.6102L10.8042 13.5837L10.749 13.5505L10.7214 13.5438V13.5305L10.6868 13.5173L10.6799 13.4973L10.6454 13.4907L10.6039 13.4641L10.5418 13.4309L10.4727 13.3911L10.4036 13.3579L10.3829 13.338L10.3345 13.318V13.2981L10.3069 13.2915L10.2931 13.2848V13.2715L10.2586 13.2649V13.2516H10.2102L10.1273 13.2051L10.0859 13.1786L10.0375 13.152L9.96154 13.1122L9.91319 13.079L9.85102 13.0524L9.79576 13.0192L9.74741 12.9926V12.9794L9.71287 12.9727L9.67834 12.9461L9.6438 12.9329L9.58163 12.8997L9.56782 12.893V12.8797L9.52637 12.8665L9.50565 12.8532V12.8333H9.47111L9.42276 12.8133V12.8H9.40204V12.7735H9.3675L9.3606 12.7602L9.31915 12.7469L9.29843 12.7336V12.7137H9.26389L9.25699 12.6938H9.22245L9.21554 12.6739H9.1741L9.10502 12.634L9.04286 12.6008L9.03595 12.5875L9.00832 12.5809V12.5543H8.97378L8.96688 12.5344H8.93234L8.88399 12.5145L8.84945 12.5079L8.81491 12.4746L8.75965 12.4481L8.71821 12.4215L8.66986 12.4082V12.3883L8.63532 12.375L8.59388 12.3485L8.51099 12.3086L8.45573 12.2688L8.40738 12.2489L8.32449 12.2024L8.28305 12.1758L8.20016 12.136L8.17253 12.1293V12.116L8.13799 12.1028L8.0551 12.0496L7.99294 12.0297L7.96531 12.0031L7.91695 11.9699L7.88242 11.9567L7.80644 11.9168L7.77881 11.9102V11.8969L7.74427 11.8836L7.73736 11.8637L7.70283 11.857L7.61994 11.8172L7.59922 11.8106V11.7906L7.57159 11.784L7.53014 11.7707V11.7574L7.4956 11.7442L7.46107 11.7242L7.44035 11.7043L7.38509 11.691V11.6777L7.35055 11.6645L7.26766 11.618L7.19859 11.5781V11.5649L7.16405 11.5582L7.08116 11.5117L7.03281 11.4852L6.95683 11.4453L6.85322 11.3855L6.80487 11.359L6.77033 11.3523V11.3324L6.7427 11.3258L6.66672 11.2859L6.63218 11.2527L6.58383 11.2328L6.51476 11.193L6.49403 11.1863L6.48713 11.1598H6.45259L6.38352 11.1266L6.34898 11.1066L6.34207 11.0934L6.273 11.0668L6.26609 11.0469L6.23155 11.0402L6.19702 11.0137V11.0004L6.16939 10.9937V10.9805H6.12794L6.10031 10.9672L6.09341 10.9406H6.05887L5.96217 10.8941L5.90691 10.8543L5.83783 10.8277L5.79639 10.8012L5.76876 10.7945V10.7812L5.73422 10.768L5.72041 10.748L5.66515 10.7281L5.58917 10.6816L5.52009 10.6551V10.6418L5.48556 10.6285L5.45102 10.6086L5.4303 10.5886L5.36122 10.5621L5.33359 10.5422L5.29906 10.5355V10.5156L5.27143 10.509L5.19545 10.4691L5.12637 10.4226L5.04349 10.3761L4.98823 10.3496L4.97441 10.3363L4.92606 10.3164L4.84317 10.2699L4.79482 10.2433V10.23L4.76028 10.2234L4.72575 10.1968L4.69121 10.1836L4.5876 10.1171L4.55997 10.1105L4.56688 17.183L4.5876 17.2029L4.64976 17.2295L4.69121 17.2494L4.71884 17.276L4.75338 17.2959V17.3092L4.80173 17.3158L4.85699 17.3424L4.88462 17.3689L4.93987 17.3955L5.00895 17.4354L5.04349 17.4486L5.08493 17.4752L5.16782 17.515L5.22998 17.5549L5.25071 17.5615L5.25761 17.5748L5.29215 17.5881V17.6147H5.36122L5.37504 17.6412L5.40267 17.6479L5.46484 17.6877L5.51319 17.7076V17.7209L5.54772 17.7342L5.58226 17.7541V17.7674L5.6237 17.774L5.68587 17.8072L5.73422 17.8404L5.78948 17.8604L5.82402 17.8936V17.9069L5.87237 17.9135L5.9 17.9268V17.9467H5.93454L5.97598 17.9666L6.04505 18.0131L6.07959 18.0264L6.273 18.1326L6.29372 18.1459V18.1658L6.32826 18.1725L6.3697 18.1924V18.2123H6.40424V18.2256L6.4595 18.2389L6.50094 18.2655L6.54929 18.2721L6.5562 18.2987L6.58383 18.3053L6.65981 18.3452L6.70126 18.3651L6.72889 18.3916L6.79105 18.4248L6.8394 18.4381L6.84631 18.458L6.87394 18.4647L6.91538 18.478V18.4912H6.94301L6.96374 18.5112L6.98446 18.5245V18.5377L7.04662 18.5577L7.09498 18.5909L7.15714 18.6241L7.24003 18.6772L7.32292 18.717L7.37127 18.7436V18.7635H7.40581L7.44725 18.7901V18.8034L7.50251 18.81L7.52323 18.8233V18.8366L7.55777 18.8499L7.68901 18.9163L7.70283 18.9295L7.73736 18.9428L7.74427 18.9561L7.76499 18.9627V18.9827L7.79953 18.9893L7.88242 19.0292L7.94458 19.0624L7.98603 19.0823L8.02747 19.0956V19.1088L8.06201 19.1221L8.13799 19.1686L8.17253 19.1819L8.20016 19.2085L8.27614 19.2483L8.3383 19.2815V19.3014L8.37284 19.3081V19.3214L8.42119 19.328L8.51099 19.3811L8.56625 19.401V19.4143L8.59388 19.421L8.66986 19.4608L8.7113 19.4874L8.73203 19.494L8.75965 19.5206L8.81491 19.5471L8.84945 19.5671L8.8978 19.587L8.94615 19.6202L8.99451 19.6401V19.6534L9.02904 19.6667L9.07049 19.6866L9.10502 19.6999V19.7132L9.13265 19.7198L9.16719 19.7397L9.21554 19.753V19.7729L9.27771 19.7862L9.28462 19.7995L9.31915 19.8061V19.8327L9.35369 19.846L9.38132 19.8593V19.8792H9.41586L9.46421 19.9057L9.56782 19.9655L9.58854 19.9722L9.59545 19.9987H9.6438V20.012L9.67143 20.0186L9.73359 20.0585L9.80958 20.0917L9.81648 20.105L9.85793 20.1116V20.1249H9.88556L9.89937 20.1515L9.92009 20.1581V20.178H9.95463L9.99608 20.1979L10.0306 20.2046L10.0375 20.2312L10.0651 20.2378L10.1273 20.271L10.1964 20.3042L10.2516 20.344L10.3207 20.3706L10.3276 20.3905L10.3553 20.3972L10.3967 20.4105V20.4237H10.4243L10.4381 20.4503L10.5003 20.4835L10.5349 20.4968L10.5763 20.5233L10.6385 20.5566L10.6799 20.5765L10.7214 20.603L10.7421 20.6097L10.749 20.623L10.7835 20.6362L10.8319 20.6694L10.8526 20.6761V20.696H10.8871L10.9217 20.7226V20.7359H10.97V18.903H10.9562V18.8897L10.9286 18.8831L10.8664 18.8631L10.8111 18.8366L10.7628 18.8034L10.6661 18.7569L10.6316 18.737L10.6108 18.717L10.5487 18.7038L10.5141 18.6706L10.4589 18.644L10.4174 18.6174L10.3691 18.5909V18.5776L10.3345 18.5709L10.2862 18.5377L10.2033 18.4979L10.1964 18.4846L10.1411 18.4647L10.0444 18.4116L10.0168 18.4049V18.3916L9.98226 18.3784L9.94082 18.3651V18.3452L9.91319 18.3385L9.87174 18.3252V18.3119L9.8303 18.3053V18.2854H9.80267L9.79576 18.2588L9.76813 18.2522L9.76122 18.2389L9.69215 18.219L9.61617 18.1658L9.58163 18.1526L9.52637 18.126L9.51256 18.1061L9.47802 18.0928V18.0795L9.44349 18.0729L9.3606 18.033L9.33297 18.0264V18.0065L9.29843 17.9932L9.19482 17.9401L9.16028 17.9201L9.13956 17.9002L9.07049 17.8737L9.04286 17.8471L9.00141 17.8338L8.96688 17.8139L8.93925 17.8072V17.794L8.90471 17.7807L8.83564 17.7342L8.79419 17.7143L8.71821 17.6744L8.68367 17.6479L8.63532 17.6279L8.55243 17.5815L8.44882 17.5283L8.40047 17.5084V17.4951L8.36593 17.4818L8.32449 17.4553V17.442L8.29686 17.4354L8.28995 17.4221L8.24851 17.4088L8.19325 17.3822L8.18634 17.3689L8.13108 17.349L8.06892 17.3092L8.04819 17.3025L8.04129 17.2893L7.98603 17.2693L7.96531 17.2561V17.2428L7.93077 17.2361L7.89623 17.2096L7.8617 17.1963L7.78571 17.1564L7.75118 17.1498L7.74427 17.1232L7.71664 17.1166L7.64066 17.0768L7.53705 17.0236L7.47488 16.9838L7.42653 16.9572V16.9439L7.39199 16.9373L7.32983 16.9041L7.28148 16.8709L7.26075 16.8642L7.25385 16.851L7.22622 16.8443V16.8178H7.19168L7.18477 16.7978H7.15024L7.08116 16.7646L7.03281 16.7314L7.01209 16.7248L6.99827 16.7049L6.94992 16.6916L6.89466 16.665L6.88776 16.6451L6.85322 16.6385L6.81177 16.6119L6.74961 16.5787L6.646 16.5256L6.61146 16.5056L6.59074 16.4857L6.53548 16.4724V16.4525L6.50094 16.4459L6.49403 16.4259L6.4595 16.4193L6.42496 16.3927L6.37661 16.3728L6.32826 16.3263V16.2998L6.30754 16.2931V16.2798H6.28681V16.2466L6.25918 16.24L6.24537 16.2134L6.22465 16.1072V13.4243H6.24537V13.3579L6.26609 13.3512L6.273 13.3048L6.32135 13.2383L6.3697 13.1985L6.37661 13.1852H6.39042V13.1719L6.4595 13.1587L6.52166 13.1321L6.54929 13.1255H6.65981V13.1387H6.72198L6.78414 13.1653L6.81868 13.1719L6.85322 13.2051L6.92229 13.2383L6.97755 13.2782L7.03281 13.2981L7.06044 13.3247L7.14333 13.3645V13.3844H7.17786L7.22622 13.411L7.29529 13.4442L7.32983 13.4509V13.4708H7.37127L7.40581 13.504V13.5173L7.43344 13.5239V13.5438L7.47488 13.5505L7.59231 13.6102L7.64757 13.6368L7.66138 13.6567L7.73736 13.6966L7.75808 13.7098V13.7231L7.79262 13.7298V13.743L7.82025 13.7497V13.7696H7.85479V13.7829H7.88932L7.89623 13.8028L7.94458 13.8095L8.00675 13.8493V13.8626L8.04819 13.8692L8.07582 13.8825V13.9024H8.11036L8.19325 13.9489L8.28305 14.002L8.39356 14.0552L8.43501 14.0684L8.46954 14.1017L8.53171 14.1415L8.58697 14.1681L8.65604 14.2079L8.69058 14.2212L8.72512 14.2478V14.261L8.75965 14.2677L8.79419 14.281L8.86327 14.3142L8.91852 14.3474L8.93925 14.3606L8.9876 14.3739V14.3872L9.01523 14.3939L9.02213 14.4138L9.04976 14.4204L9.0843 14.4337L9.09121 14.447L9.12575 14.4603L9.13265 14.4735L9.15338 14.4802V14.5001H9.18791L9.23626 14.5267L9.33987 14.5864L9.40895 14.6196L9.47802 14.6595L9.51947 14.6794L9.56091 14.706L9.58163 14.7126L9.60235 14.7325L9.66452 14.7591V14.7724L9.69215 14.779L9.73359 14.8056L9.76813 14.8189L9.79576 14.8321V14.8454L9.83721 14.8587L9.89937 14.8919L10.003 14.9583L10.0859 14.9915L10.1411 15.0247L10.148 15.038L10.1895 15.0579L10.1964 15.0779L10.2309 15.0845L10.2862 15.1111L10.3898 15.1642L10.4381 15.1974L10.5141 15.2306L10.5418 15.2572L10.5832 15.2771L10.6316 15.2904L10.6385 15.3103L10.6661 15.3169L10.7283 15.3568L10.7766 15.3767V15.39L10.8388 15.4099L10.8871 15.4431L10.9493 15.4763L10.9976 15.5029L11.0736 15.5427L11.1013 15.5494V15.5693L11.1358 15.5826L11.198 15.6158L11.2394 15.6357L11.2739 15.6623V15.6755L11.3085 15.6822L11.343 15.6955L11.4259 15.7419L11.4743 15.7751L11.5917 15.8283L11.6124 15.8482L11.6608 15.8748L11.6677 15.8947L11.7229 15.908L11.7782 15.9412V15.9544L11.8196 15.9611L11.9232 16.0142L11.9647 16.0408L11.9854 16.0474L11.9923 16.0607L12.0268 16.074L12.0545 16.0939L12.1028 16.1138L12.1443 16.1338L12.1788 16.147V16.167L12.241 16.1869L12.2479 16.2068L12.31 16.2267L12.3584 16.2599L12.4206 16.2931L12.4689 16.3263L12.5242 16.3529L12.5725 16.3795L12.5932 16.3927L12.6416 16.406L12.6485 16.4259L12.6761 16.4326L12.7521 16.4791L12.7797 16.499L12.8143 16.5123L12.8903 16.5521L12.9593 16.592L13.0008 16.6119L13.0422 16.6385L13.1113 16.665V16.6849L13.1458 16.6982L13.2356 16.7513L13.284 16.758L13.2909 16.7846L13.3185 16.7912L13.3807 16.8244L13.4843 16.8908L13.5396 16.9174L13.6017 16.9506V16.9705H13.6432L13.6708 16.9904L13.7053 17.0037L13.7468 17.0303L13.8366 17.1166L13.8918 17.1896L13.9264 17.2228L13.9609 17.2893L13.9816 17.349V17.4088L14.0024 17.4154V17.4951L14.03 17.5018V23.8703L14.0231 23.8836H14.0093L13.9954 23.9965L13.9885 24.0098H13.9747L13.9678 24.0496L13.9402 24.1028L13.9333 24.1293H13.9126L13.8987 24.1625L13.8573 24.2157L13.8297 24.2489L13.8089 24.2555L13.7882 24.2887L13.7192 24.3418L13.6708 24.3618L13.6639 24.3684H13.6224V24.3883L13.5879 24.4082L13.5534 24.4215L13.5465 24.4348L13.4843 24.468L13.4221 24.5145L13.3738 24.5278L13.3392 24.5344V24.5477L13.2564 24.5875L13.2287 24.6075H13.1873V24.6274L13.1527 24.6473H13.1251V24.6606L13.0837 24.6672V24.6805L13.0422 24.6872L13.0353 24.7071L13.0077 24.7204H12.987V24.7403L12.8972 24.7536L12.835 24.7735L12.7521 24.7868L12.5932 24.7934L12.5863 24.8H12.4068V24.7868H12.2479L12.2272 24.7801V24.7668H12.165L12.1512 24.7602V24.7469H12.0752L12.013 24.7403L11.9854 24.7204L11.944 24.7071V24.6938H11.9094L11.8403 24.654L11.8265 24.634L11.7989 24.6207V24.6075H11.7644V24.5875H11.7298L11.7229 24.5676L11.6953 24.561L11.6331 24.5411L11.5779 24.5145L11.5088 24.468L11.4673 24.4547L11.3983 24.4149L11.3776 24.395L11.3223 24.3817V24.3684L11.2808 24.3551L11.1841 24.2953L11.1358 24.2688V24.2555L11.1013 24.2489L11.0598 24.2223L10.9976 24.1891L10.9286 24.1492L10.8319 24.1028L10.7904 24.0762L10.7144 24.0364L10.6799 24.0231V24.0098L10.6385 24.0031V23.9899L10.6039 23.9766L10.521 23.9235L10.4589 23.8903L10.4312 23.877L10.4243 23.8504H10.3967V23.8305H10.3622L10.3553 23.8106L10.3276 23.8039V23.7906H10.2931V23.7707H10.2586L10.2516 23.7508L10.2033 23.7442L10.1273 23.711L10.0997 23.7043L10.0928 23.6844L10.0237 23.6512L9.98226 23.6246L9.89937 23.5848L9.85793 23.5582L9.77504 23.5184L9.71287 23.4785L9.65071 23.4453L9.56782 23.3988L9.51947 23.3656L9.42276 23.3191L9.31915 23.2594L9.2708 23.2328L9.23626 23.2262V23.2062L9.20863 23.1996L9.13265 23.1598L9.12575 23.1398L9.09121 23.1332L9.04976 23.1066L8.9876 23.0734L8.91852 23.0336L8.87708 23.0137V23.0004L8.85636 22.9937V22.9738H8.82182V22.9539H8.78728L8.78038 22.934H8.73893V22.9141L8.7044 22.9074L8.66295 22.8875V22.8742L8.63532 22.8676V22.8543L8.60769 22.8476L8.57316 22.8344V22.8144H8.53171V22.7945L8.48336 22.7879L8.43501 22.7613L8.3383 22.7281V22.7148L8.30377 22.7015L8.2416 22.6484L8.19325 22.6351V22.6219L8.15871 22.6152L8.08964 22.5754L8.02747 22.5422V22.5156H7.97221L7.91695 22.4824L7.89623 22.4625L7.84788 22.4426L7.78571 22.4027L7.75118 22.3828L7.6821 22.3562L7.65447 22.3363V22.323L7.61994 22.3164L7.55086 22.2898L7.54396 22.2699L7.47488 22.2367L7.40581 22.1968L7.35055 22.1703L7.33673 22.1504L7.3022 22.1371V22.1238L7.26766 22.1171L7.2124 22.0839L7.14333 22.0574L7.1157 22.0375V22.0242L7.08116 22.0175L7.03972 21.991L6.97755 21.9578L6.93611 21.9378V21.9246L6.90848 21.9179L6.8394 21.8847L6.81177 21.8582V21.8382L6.76342 21.8316L6.72198 21.8117L6.68744 21.7984L6.6529 21.7718L6.61837 21.7585L6.5562 21.7253L6.54929 21.7121L6.48022 21.6855L6.37661 21.6257L6.32826 21.5992L6.29372 21.5925V21.5726L6.26609 21.566L6.25918 21.5527L6.19011 21.5261L6.1832 21.5062L6.14867 21.4996L6.07959 21.473V21.4531L6.04505 21.4398L5.94144 21.3867L5.90691 21.3667L5.88619 21.3468L5.85856 21.3402V21.3269L5.79639 21.3136L5.69278 21.2472L5.64443 21.2206V21.2074L5.60989 21.2007L5.56845 21.1741L5.50628 21.1409L5.40267 21.0878L5.36813 21.0679L5.34741 21.048L5.28524 21.0347L5.25071 21.0015L5.19545 20.9749L5.154 20.9484L5.09184 20.9152L5.07802 20.8952L5.02967 20.8753L4.9606 20.8355L4.93987 20.8288L4.93297 20.8023H4.89843L4.80173 20.7558L4.76028 20.7292L4.71193 20.7027V20.6894L4.67739 20.6827L4.64976 20.6694L4.64286 20.6562L4.60832 20.6429L4.53234 20.603L4.49089 20.5765L4.40801 20.5366L4.31821 20.4769L4.26295 20.4437V20.4304L4.20078 20.4237L4.17316 20.4038V20.3905L4.13862 20.3839L4.11099 20.3706L4.10408 20.344L4.07645 20.3374V20.3241H4.03501L4.00738 20.3108L4.00047 20.2843H3.95212L3.89686 20.2511L3.87614 20.2312L3.82779 20.2112V20.1913L3.80016 20.1847L3.78634 20.1714L3.75181 20.1581L3.69655 20.1382L3.64129 20.1116L3.63438 20.0917L3.59984 20.0851L3.55149 20.0518L3.45479 20.0054L3.35808 19.9522L3.33046 19.9257V19.9057L3.2821 19.8991L3.25447 19.8858L3.24757 19.8725L3.21303 19.8593V19.846H3.1854V19.8327L3.12323 19.8261L3.0887 19.7929L3.04035 19.7729L2.97127 19.7331L2.92292 19.7198L2.88838 19.6866L2.85385 19.66L2.80549 19.6468L2.75024 19.6136V19.5936L2.70879 19.587L2.68116 19.5737L2.66735 19.5538L2.59827 19.5272L2.53611 19.494L2.52229 19.4874V19.4741L2.49466 19.4675L2.48776 19.4542L2.41868 19.4342L2.32889 19.3745L2.30816 19.3612L2.26672 19.3479L2.21146 19.3147L2.16311 19.3014V19.2815L2.12857 19.2682L2.08022 19.235L2.07331 19.2217L2.02496 19.2018L2.01805 19.1819L1.98352 19.1686L1.90063 19.0823L1.83846 19.0225L1.79702 18.9893L1.7763 18.9561L1.75557 18.9495L1.72794 18.903L1.71413 18.8631L1.70722 18.8299H1.6865V18.7967L1.65887 18.7901L1.5967 18.6639L1.58289 18.6307V18.5709H1.56907L1.56217 18.5178L1.54144 18.5045L1.52763 18.4514V18.4248H1.51381L1.5 18.3452V7.29479L1.50691 7.26823H1.52072V7.15533L1.53454 7.12213L1.55526 7.02916L1.5898 6.94947L1.62433 6.88306L1.64505 6.87642L1.65196 6.84321L1.67959 6.82993L1.69341 6.77681L1.70031 6.7436L1.70722 6.71704L1.72794 6.69712L1.74867 6.67055H1.76939L1.7763 6.64399L1.80392 6.60414L1.86609 6.53774L1.94898 6.45805L2.02496 6.39828L2.06641 6.36507L2.12857 6.35843V6.33851L2.16311 6.33187L2.17002 6.31859L2.19074 6.31195L2.20455 6.28538L2.25981 6.2721V6.25882L2.30126 6.2389H2.33579L2.3427 6.21233L2.36342 6.20569L2.39105 6.17913L2.41868 6.15921H2.4394V6.14593L2.48085 6.126H2.50157V6.11272L2.55683 6.08616L2.6259 6.04631H2.64662V6.03303L2.68116 6.01975L2.74333 6.01311L2.75024 5.99983L2.81931 5.99319L2.82622 5.97991L2.90911 5.97326L2.94364 5.95334Z" fill="#004EA1"/>
</svg>
