<svg width="24" height="24" viewBox="0 0 24 24" fill="none" xmlns="http://www.w3.org/2000/svg">
<path d="M12 19C19 19 22 12 22 12C22 12 21.3657 10.5201 20 8.92114C18.3955 7.04267 15.7814 5 12 5C5 5 2 12 2 12C2 12 4.23843 17.223 9.35982 18.6458" stroke="#1C1B1F" stroke-width="2" stroke-linecap="round"/>
<path d="M12 15C10.3431 15 9 13.6569 9 12C9 10.3431 10.3431 9 12 9C13.6569 9 15 10.3431 15 12" stroke="#1C1B1F" stroke-width="2"/>
<path d="M7 19L8.5 17" stroke="white" stroke-width="2"/>
<path d="M13 11L19 3" stroke="white" stroke-width="2"/>
<path d="M21 7L10.5 21" stroke="white" stroke-width="2"/>
<path d="M8 21L20 5" stroke="#1C1B1F" stroke-width="2"/>
</svg>
