<svg width="24" height="25" viewBox="0 0 24 25" fill="none" xmlns="http://www.w3.org/2000/svg">
<path d="M22.9942 12.1809C22.9942 12.8685 22.4213 13.407 21.7719 13.407H20.5496L20.5763 19.5263C20.5763 19.6294 20.5687 19.7326 20.5572 19.8357V20.4507C20.5572 21.2949 19.8735 21.9786 19.0293 21.9786H18.4181C18.3761 21.9786 18.3341 21.9786 18.2921 21.9748C18.2386 21.9786 18.1851 21.9786 18.1317 21.9786H16.8902H15.9735C15.1293 21.9786 14.4456 21.2949 14.4456 20.4507V19.534V17.0893C14.4456 16.4132 13.8994 15.867 13.2233 15.867H10.7786C10.1025 15.867 9.55628 16.4132 9.55628 17.0893V19.534V20.4507C9.55628 21.2949 8.87254 21.9786 8.02838 21.9786H7.11163H5.89312C5.83583 21.9786 5.77853 21.9748 5.72123 21.971C5.6754 21.9748 5.62956 21.9786 5.58372 21.9786H4.97256C4.12839 21.9786 3.44465 21.2949 3.44465 20.4507V16.1726C3.44465 16.1382 3.44465 16.1 3.44847 16.0656V13.407H2.22233C1.53477 13.407 1 12.8723 1 12.1809C1 11.8371 1.11459 11.5315 1.38198 11.2642L11.1759 2.72697C11.4432 2.45958 11.7488 2.42139 12.0162 2.42139C12.2836 2.42139 12.5892 2.49778 12.8184 2.68877L22.5741 11.2642C22.8796 11.5315 23.0324 11.8371 22.9942 12.1809Z" stroke="#6B7280" stroke-width="1.75" stroke-linejoin="round"/>
</svg>
