<svg width="24" height="25" viewBox="0 0 24 25" fill="none" xmlns="http://www.w3.org/2000/svg">
<path d="M22.7444 12.3813C22.7444 13.0533 22.1844 13.5796 21.5498 13.5796H20.3553L20.3814 19.5598C20.3814 19.6606 20.3739 19.7614 20.3627 19.8622V20.4632C20.3627 21.2882 19.6945 21.9564 18.8696 21.9564H18.2723C18.2312 21.9564 18.1902 21.9564 18.1491 21.9526C18.0968 21.9564 18.0446 21.9564 17.9923 21.9564H16.7791H15.8832C15.0582 21.9564 14.39 21.2882 14.39 20.4632V19.5673V17.1782C14.39 16.5174 13.8562 15.9836 13.1955 15.9836H10.8064C10.1456 15.9836 9.61182 16.5174 9.61182 17.1782V19.5673V20.4632C9.61182 21.2882 8.94362 21.9564 8.11864 21.9564H7.22273H6.03192C5.97592 21.9564 5.91993 21.9526 5.86393 21.9489C5.81914 21.9526 5.77434 21.9564 5.72955 21.9564H5.13227C4.30729 21.9564 3.63909 21.2882 3.63909 20.4632V16.2823C3.63909 16.2487 3.63909 16.2113 3.64283 16.1777V13.5796H2.44455C1.77261 13.5796 1.25 13.057 1.25 12.3813C1.25 12.0454 1.36199 11.7467 1.6233 11.4854L11.1946 3.14226C11.4559 2.88096 11.7545 2.84363 12.0158 2.84363C12.2772 2.84363 12.5758 2.91829 12.7998 3.10493L22.3337 11.4854C22.6324 11.7467 22.7817 12.0454 22.7444 12.3813Z" fill="#6B7280"/>
</svg>
