<svg width="24" height="25" viewBox="0 0 24 25" fill="none" xmlns="http://www.w3.org/2000/svg">
<path d="M22.7444 12.1813C22.7444 12.8532 22.1844 13.3795 21.5498 13.3795H20.3553L20.3814 19.3597C20.3814 19.4605 20.3739 19.5613 20.3627 19.6621V20.2631C20.3627 21.0881 19.6945 21.7563 18.8696 21.7563H18.2723C18.2312 21.7563 18.1902 21.7563 18.1491 21.7526C18.0968 21.7563 18.0446 21.7563 17.9923 21.7563H16.7791H15.8832C15.0582 21.7563 14.39 21.0881 14.39 20.2631V19.3672V16.9781C14.39 16.3174 13.8562 15.7836 13.1955 15.7836H10.8064C10.1456 15.7836 9.61182 16.3174 9.61182 16.9781V19.3672V20.2631C9.61182 21.0881 8.94362 21.7563 8.11864 21.7563H7.22273H6.03192C5.97592 21.7563 5.91993 21.7526 5.86393 21.7488C5.81914 21.7526 5.77434 21.7563 5.72955 21.7563H5.13227C4.30729 21.7563 3.63909 21.0881 3.63909 20.2631V16.0822C3.63909 16.0486 3.63909 16.0113 3.64283 15.9777V13.3795H2.44455C1.77261 13.3795 1.25 12.8569 1.25 12.1813C1.25 11.8453 1.36199 11.5467 1.6233 11.2853L11.1946 2.94219C11.4559 2.68088 11.7545 2.64355 12.0158 2.64355C12.2772 2.64355 12.5758 2.71821 12.7998 2.90486L22.3337 11.2853C22.6324 11.5467 22.7817 11.8453 22.7444 12.1813Z" stroke="#6B7280" stroke-width="1.75" stroke-linejoin="round"/>
</svg>
