<svg width="24" height="24" viewBox="0 0 24 24" fill="none" xmlns="http://www.w3.org/2000/svg">
<path d="M4.77486 8.59949L4.16228 7.80907H4.16228L4.77486 8.59949ZM12 3L12.6126 2.20958L12 1.73484L11.3874 2.20958L12 3ZM19.2251 8.59949L18.6126 9.3899L18.6126 9.3899L19.2251 8.59949ZM14.5 19H13.5V20H14.5V19ZM19.8979 9.25003L19 9.69016L19 9.69016L19.8979 9.25003ZM14.5 14H15.5V13.9999L14.5 14ZM9.5 19V20H10.5V19H9.5ZM5 17V10.1803H3V17H5ZM5.38743 9.3899L12.6126 3.79042L11.3874 2.20958L4.16228 7.80907L5.38743 9.3899ZM11.3874 3.79042L18.6126 9.3899L19.8377 7.80907L12.6126 2.20958L11.3874 3.79042ZM19 10.1803V17H21V10.1803H19ZM18 18H14.5V20H18V18ZM19 17C19 17.4997 18.9979 17.7738 18.9723 17.964C18.9506 18.1254 18.9297 18.0703 19 18L20.4142 19.4142C20.7774 19.051 20.903 18.6137 20.9545 18.2305C21.0021 17.8761 21 17.4431 21 17H19ZM18 20C18.4431 20 18.8761 20.0021 19.2305 19.9545C19.6137 19.903 20.051 19.7774 20.4142 19.4142L19 18C19.0703 17.9297 19.1254 17.9506 18.964 17.9723C18.7738 17.9979 18.4997 18 18 18V20ZM18.6126 9.3899C18.8162 9.54774 18.9185 9.62808 18.9871 9.69149C19.0415 9.74184 19.0217 9.7345 19 9.69016L20.7959 8.8099C20.5678 8.34458 20.1406 8.0438 19.8377 7.80907L18.6126 9.3899ZM21 10.1803C21 9.79714 21.0239 9.27522 20.7959 8.8099L19 9.69016C18.9783 9.64582 18.9846 9.62569 18.991 9.69958C18.9991 9.79262 19 9.92266 19 10.1803H21ZM5 10.1803C5 9.92266 5.00087 9.79262 5.00898 9.69958C5.01542 9.62569 5.02174 9.64582 5 9.69016L3.20413 8.8099C2.97605 9.27522 3 9.79714 3 10.1803H5ZM4.16228 7.80907C3.85941 8.0438 3.43221 8.34458 3.20413 8.8099L5 9.69016C4.97827 9.7345 4.95849 9.74184 5.01295 9.69149C5.08152 9.62808 5.18377 9.54774 5.38743 9.3899L4.16228 7.80907ZM3 17C3 17.4431 2.99788 17.8761 3.04553 18.2305C3.09705 18.6137 3.22257 19.051 3.58579 19.4142L5 18C5.07032 18.0703 5.0494 18.1254 5.02769 17.964C5.00212 17.7738 5 17.4997 5 17H3ZM6 18C5.50033 18 5.22617 17.9979 5.03598 17.9723C4.87455 17.9506 4.92968 17.9297 5 18L3.58579 19.4142C3.949 19.7774 4.38628 19.903 4.76948 19.9545C5.12392 20.0021 5.55687 20 6 20V18ZM12 12.5C12.3604 12.5 12.7508 12.5944 13.0249 12.8C13.2506 12.9693 13.5 13.2856 13.5 14.0001L15.5 13.9999C15.4999 12.7144 14.9992 11.7807 14.225 11.2C13.4991 10.6556 12.6396 10.5 12 10.5V12.5ZM13.5 14V19H15.5V14H13.5ZM12 10.5C11.3604 10.5 10.5008 10.6556 9.775 11.2C9.00071 11.7807 8.5 12.7145 8.5 14H10.5C10.5 13.2855 10.7493 12.9693 10.975 12.8C11.2492 12.5944 11.6396 12.5 12 12.5V10.5ZM8.5 14V19H10.5V14H8.5ZM9.5 18H6V20H9.5V18Z" fill="#1C1B1F"/>
</svg>
