<svg width="24" height="24" viewBox="0 0 24 24" fill="none" xmlns="http://www.w3.org/2000/svg">
<path d="M19 16L14.2857 11L9.64286 15.2353L7.5 13.1176L5 15.5882" stroke="#1C1B1F" stroke-width="2" stroke-linecap="square"/>
<rect x="7" y="7" width="3" height="3" rx="1.5" fill="#1C1B1F"/>
<path d="M15.2 4H8.8C7.11984 4 6.27976 4 5.63803 4.32698C5.07354 4.6146 4.6146 5.07354 4.32698 5.63803C4 6.27976 4 7.11984 4 8.8V15.2C4 16.8802 4 17.7202 4.32698 18.362C4.6146 18.9265 5.07354 19.3854 5.63803 19.673C6.27976 20 7.11984 20 8.8 20H15.2C16.8802 20 17.7202 20 18.362 19.673C18.9265 19.3854 19.3854 18.9265 19.673 18.362C20 17.7202 20 16.8802 20 15.2V8.8C20 7.11984 20 6.27976 19.673 5.63803C19.3854 5.07354 18.9265 4.6146 18.362 4.32698C17.7202 4 16.8802 4 15.2 4Z" stroke="#1C1B1F" stroke-width="2"/>
</svg>
