<svg width="24" height="24" viewBox="0 0 24 24" fill="none" xmlns="http://www.w3.org/2000/svg">
<path d="M8.8 19H15.2C16.8802 19 17.7202 19 18.362 18.673C18.9265 18.3854 19.3854 17.9265 19.673 17.362C20 16.7202 20 15.8802 20 14.2V9.8C20 8.11984 20 7.27976 19.673 6.63803C19.3854 6.07354 18.9265 5.6146 18.362 5.32698C17.7202 5 16.8802 5 15.2 5H8.8C7.11984 5 6.27976 5 5.63803 5.32698C5.07354 5.6146 4.6146 6.07354 4.32698 6.63803C4 7.27976 4 8.11984 4 9.8V14.2C4 15.8802 4 16.7202 4.32698 17.362C4.6146 17.9265 5.07354 18.3854 5.63803 18.673C6.27976 19 7.11984 19 8.8 19Z" stroke="#1C1B1F" stroke-width="2"/>
<path d="M5 12H8.09625C8.28174 12 8.37448 12 8.46323 12.0125C8.67379 12.0423 8.87354 12.1243 9.04429 12.2511C9.11626 12.3045 9.18225 12.3697 9.31424 12.5L9.94552 13.1234C10.5144 13.685 11.2816 14 12.081 14V14C12.8804 14 13.6477 13.685 14.2165 13.1234L14.8478 12.5C14.9798 12.3697 15.0458 12.3045 15.1177 12.2511C15.2885 12.1243 15.4883 12.0423 15.6988 12.0125C15.7876 12 15.8803 12 16.0658 12H19" stroke="#1C1B1F" stroke-width="2"/>
</svg>
