<svg width="24" height="24" viewBox="0 0 24 24" fill="none" xmlns="http://www.w3.org/2000/svg">
<path d="M12 12V15" stroke="#1C1B1F" stroke-width="2" stroke-linecap="square" stroke-linejoin="round"/>
<path d="M12 9.9998C11.6587 9.9998 11.3651 9.89344 11.119 9.68072C10.873 9.46427 10.75 9.20489 10.75 8.9026C10.75 8.59658 10.873 8.33721 11.119 8.12449C11.3651 7.90803 11.6587 7.7998 12 7.7998C12.3452 7.7998 12.6389 7.90803 12.881 8.12449C13.127 8.33721 13.25 8.59658 13.25 8.9026C13.25 9.20489 13.127 9.46427 12.881 9.68072C12.6389 9.89344 12.3452 9.9998 12 9.9998Z" fill="#1C1B1F"/>
<rect x="4" y="4" width="16" height="16" rx="8" stroke="#1C1B1F" stroke-width="2"/>
</svg>
