<svg width="24" height="25" viewBox="0 0 24 25" fill="none" xmlns="http://www.w3.org/2000/svg">
<g clip-path="url(#clip0_15_286)">
<path d="M15 0.599976C14.1703 0.599976 13.5 1.27029 13.5 2.09998C13.5 2.92966 14.1703 3.59998 15 3.59998H18.8766L9.44062 13.0406C8.85469 13.6265 8.85469 14.5781 9.44062 15.164C10.0266 15.75 10.9781 15.75 11.5641 15.164L21 5.72341V9.59998C21 10.4297 21.6703 11.1 22.5 11.1C23.3297 11.1 24 10.4297 24 9.59998V2.09998C24 1.27029 23.3297 0.599976 22.5 0.599976H15ZM3.75 2.09998C1.67812 2.09998 0 3.7781 0 5.84998V20.85C0 22.9219 1.67812 24.6 3.75 24.6H18.75C20.8219 24.6 22.5 22.9219 22.5 20.85V15.6C22.5 14.7703 21.8297 14.1 21 14.1C20.1703 14.1 19.5 14.7703 19.5 15.6V20.85C19.5 21.2625 19.1625 21.6 18.75 21.6H3.75C3.3375 21.6 3 21.2625 3 20.85V5.84998C3 5.43748 3.3375 5.09998 3.75 5.09998H9C9.82969 5.09998 10.5 4.42966 10.5 3.59998C10.5 2.77029 9.82969 2.09998 9 2.09998H3.75Z" fill="#6B7280"/>
</g>
<defs>
<clipPath id="clip0_15_286">
<rect width="24" height="24" fill="white" transform="translate(0 0.599976)"/>
</clipPath>
</defs>
</svg>
