<svg width="24" height="25" viewBox="0 0 24 25" fill="none" xmlns="http://www.w3.org/2000/svg">
<path d="M14.375 3.09998C13.7182 3.09998 13.1875 3.63064 13.1875 4.28748C13.1875 4.94431 13.7182 5.47498 14.375 5.47498H17.4439L9.97383 12.9488C9.50996 13.4127 9.50996 14.166 9.97383 14.6299C10.4377 15.0937 11.191 15.0937 11.6549 14.6299L19.125 7.15603V10.225C19.125 10.8818 19.6557 11.4125 20.3125 11.4125C20.9693 11.4125 21.5 10.8818 21.5 10.225V4.28748C21.5 3.63064 20.9693 3.09998 20.3125 3.09998H14.375ZM5.46875 4.28748C3.82852 4.28748 2.5 5.61599 2.5 7.25623V19.1312C2.5 20.7715 3.82852 22.1 5.46875 22.1H17.3438C18.984 22.1 20.3125 20.7715 20.3125 19.1312V14.975C20.3125 14.3181 19.7818 13.7875 19.125 13.7875C18.4682 13.7875 17.9375 14.3181 17.9375 14.975V19.1312C17.9375 19.4578 17.6703 19.725 17.3438 19.725H5.46875C5.14219 19.725 4.875 19.4578 4.875 19.1312V7.25623C4.875 6.92966 5.14219 6.66248 5.46875 6.66248H9.625C10.2818 6.66248 10.8125 6.13181 10.8125 5.47498C10.8125 4.81814 10.2818 4.28748 9.625 4.28748H5.46875Z" fill="#6B7280"/>
</svg>
