<svg width="24" height="24" viewBox="0 0 24 24" fill="none" xmlns="http://www.w3.org/2000/svg">
<path d="M11.9975 21L11.3671 21.7763L12.6276 21.7765L11.9975 21ZM5 10L6 10L5 10ZM11.9975 21C12.6279 20.2237 12.628 20.2238 12.6281 20.2239C12.6281 20.2239 12.6282 20.224 12.6282 20.224C12.6283 20.224 12.6282 20.224 12.628 20.2238C12.6276 20.2235 12.6268 20.2229 12.6256 20.2219C12.6232 20.2199 12.6191 20.2166 12.6135 20.2119C12.6022 20.2026 12.5845 20.188 12.5609 20.1682C12.5137 20.1287 12.4428 20.0687 12.3516 19.9896C12.1691 19.8315 11.9057 19.5977 11.5885 19.3C10.9528 18.7032 10.1074 17.8558 9.26484 16.8515C7.53398 14.7883 5.99998 12.2779 6 10L4 9.99999C3.99997 13.0399 5.96471 16.0295 7.73261 18.1369C8.6394 19.2178 9.54338 20.1233 10.2197 20.7582C10.5585 21.0762 10.8419 21.3279 11.042 21.5013C11.1422 21.588 11.2216 21.6553 11.2769 21.7016C11.3046 21.7248 11.3262 21.7427 11.3414 21.7552C11.3489 21.7614 11.3549 21.7663 11.3592 21.7699C11.3614 21.7716 11.3631 21.7731 11.3644 21.7741C11.3651 21.7747 11.3657 21.7751 11.3661 21.7755C11.3663 21.7757 11.3666 21.7759 11.3667 21.776C11.3669 21.7761 11.3671 21.7763 11.9975 21ZM11.9975 21C12.6276 21.7765 12.6278 21.7764 12.628 21.7762C12.6281 21.7761 12.6284 21.7759 12.6286 21.7757C12.6291 21.7753 12.6296 21.7749 12.6303 21.7744C12.6316 21.7733 12.6333 21.7719 12.6355 21.7701C12.6398 21.7666 12.6458 21.7617 12.6534 21.7554C12.6686 21.7429 12.6902 21.725 12.7179 21.7018C12.7732 21.6555 12.8527 21.5883 12.9529 21.5015C13.1532 21.3281 13.4367 21.0765 13.7758 20.7584C14.4526 20.1236 15.3572 19.218 16.2646 18.1371C18.0337 16.0299 20 13.0402 20 10H18C18 12.2776 16.465 14.7879 14.7329 16.8512C13.8897 17.8556 13.0436 18.703 12.4075 19.2997C12.0901 19.5975 11.8265 19.8313 11.6439 19.9894C11.5526 20.0684 11.4816 20.1285 11.4344 20.168C11.4108 20.1877 11.3931 20.2024 11.3818 20.2117C11.3761 20.2163 11.3721 20.2197 11.3696 20.2217C11.3684 20.2226 11.3676 20.2233 11.3673 20.2236C11.3671 20.2238 11.367 20.2238 11.367 20.2238C11.367 20.2238 11.3671 20.2237 11.3671 20.2237C11.3672 20.2236 11.3674 20.2235 11.9975 21ZM20 10C20 5.62011 16.5668 2 11.9975 2V4C15.4332 4 18 6.69552 18 10H20ZM11.9975 2C7.42706 2 4.00005 5.62359 4 9.99999L6 10C6.00003 6.69664 8.56289 4 11.9975 4V2Z" fill="#1C1B1F"/>
<rect x="10" y="8" width="4" height="4" rx="2" fill="#1C1B1F"/>
</svg>
