<svg width="24" height="24" viewBox="0 0 24 24" fill="none" xmlns="http://www.w3.org/2000/svg">
<path d="M6 13L8.50796 10.492C9.04755 9.95245 9.31735 9.68265 9.46647 9.36227C9.59827 9.07912 9.66191 8.76903 9.65231 8.45685C9.64146 8.10364 9.49975 7.74938 9.21634 7.04085L8.59973 5.49934C8.23752 4.59379 7.36047 4 6.38516 4H5.6C4.71634 4 4 4.71634 4 5.6V5.6C4 13.5529 10.4471 20 18.4 20V20C19.2837 20 20 19.2837 20 18.4V17.6148C20 16.6395 19.4062 15.7625 18.5007 15.4003L16.9591 14.7837C16.2506 14.5002 15.8964 14.3585 15.5431 14.3477C15.231 14.3381 14.9209 14.4017 14.6377 14.5335C14.3174 14.6826 14.0476 14.9524 13.508 15.492L11 18" stroke="#1C1B1F" stroke-width="2"/>
</svg>
