<svg width="24" height="24" viewBox="0 0 24 24" fill="none" xmlns="http://www.w3.org/2000/svg">
<path d="M10.8 20H13.2C14.8802 20 15.7202 20 16.362 19.673C16.9265 19.3854 17.3854 18.9265 17.673 18.362C18 17.7202 18 16.8802 18 15.2V8.8C18 7.11984 18 6.27976 17.673 5.63803C17.3854 5.07354 16.9265 4.6146 16.362 4.32698C15.7202 4 14.8802 4 13.2 4H10.8C9.11984 4 8.27976 4 7.63803 4.32698C7.07354 4.6146 6.6146 5.07354 6.32698 5.63803C6 6.27976 6 7.11984 6 8.8V15.2C6 16.8802 6 17.7202 6.32698 18.362C6.6146 18.9265 7.07354 19.3854 7.63803 19.673C8.27976 20 9.11984 20 10.8 20Z" stroke="#1C1B1F" stroke-width="2"/>
<path d="M14 15H10" stroke="#1C1B1F" stroke-width="2"/>
</svg>
