<svg width="24" height="24" viewBox="0 0 24 24" fill="none" xmlns="http://www.w3.org/2000/svg">
<path d="M11.998 17L11.3715 17.7794L12.6243 17.7796L11.998 17ZM6.5 8.44445L5.5 8.44444L6.5 8.44445ZM11.998 17C12.6245 16.2206 12.6247 16.2207 12.6248 16.2208C12.6248 16.2208 12.625 16.2209 12.625 16.221C12.6251 16.221 12.625 16.221 12.6249 16.2209C12.6247 16.2208 12.6242 16.2203 12.6234 16.2197C12.6217 16.2183 12.6187 16.2159 12.6145 16.2124C12.606 16.2055 12.5926 16.1945 12.5745 16.1795C12.5382 16.1495 12.4835 16.1036 12.4128 16.0429C12.2713 15.9216 12.0665 15.7417 11.8197 15.5123C11.3246 15.0523 10.6668 14.3995 10.0119 13.6267C8.65515 12.0258 7.49998 10.1279 7.5 8.44446L5.5 8.44444C5.49997 10.8971 7.09381 13.2769 8.48611 14.9198C9.2057 15.7689 9.92242 16.4795 10.4583 16.9774C10.7268 17.227 10.9516 17.4246 11.1108 17.5611C11.1904 17.6294 11.2538 17.6825 11.2981 17.7193C11.3203 17.7376 11.3377 17.7519 11.35 17.762C11.3562 17.767 11.3611 17.771 11.3647 17.7739C11.3665 17.7754 11.368 17.7766 11.3691 17.7775C11.3697 17.7779 11.3702 17.7783 11.3706 17.7787C11.3708 17.7788 11.371 17.779 11.3711 17.7791C11.3713 17.7793 11.3715 17.7794 11.998 17ZM11.998 17C12.6243 17.7796 12.6245 17.7795 12.6247 17.7793C12.6248 17.7792 12.625 17.779 12.6252 17.7789C12.6256 17.7786 12.6261 17.7782 12.6267 17.7777C12.6278 17.7768 12.6293 17.7756 12.6311 17.7742C12.6347 17.7712 12.6396 17.7673 12.6457 17.7622C12.6581 17.7522 12.6755 17.7379 12.6977 17.7195C12.7421 17.6827 12.8055 17.6297 12.8851 17.5614C13.0444 17.4248 13.2694 17.2272 13.5382 16.9776C14.0744 16.4797 14.7916 15.7691 15.5117 14.92C16.9049 13.2773 18.5 10.8973 18.5 8.44445H16.5C16.5 10.1276 15.3441 12.0255 13.9864 13.6264C13.331 14.3992 12.6727 15.052 12.1773 15.512C11.9302 15.7414 11.7253 15.9214 11.5837 16.0427C11.513 16.1033 11.4582 16.1492 11.4219 16.1793C11.4038 16.1943 11.3903 16.2053 11.3819 16.2122C11.3776 16.2156 11.3747 16.2181 11.373 16.2194C11.3721 16.2201 11.3716 16.2205 11.3714 16.2207C11.3713 16.2208 11.3713 16.2208 11.3713 16.2207C11.3714 16.2207 11.3715 16.2206 11.3715 16.2206C11.3716 16.2205 11.3718 16.2204 11.998 17ZM18.5 8.44445C18.5 4.90875 15.7001 2 11.998 2V4C14.5856 4 16.5 6.0034 16.5 8.44445H18.5ZM11.998 2C8.2948 2 5.50004 4.91171 5.5 8.44444L7.5 8.44446C7.50003 6.00402 9.4116 4 11.998 4V2Z" fill="#1C1B1F"/>
<rect x="10.5" y="7" width="3" height="3" rx="1.5" fill="#1C1B1F"/>
<path d="M8 20H16" stroke="#1C1B1F" stroke-width="2" stroke-linecap="square"/>
</svg>
