<svg width="24" height="24" viewBox="0 0 24 24" fill="none" xmlns="http://www.w3.org/2000/svg">
<path d="M6 5.93067V18.0693C6 19.0239 6 19.5012 6.19948 19.7676C6.37332 19.9998 6.63943 20.1451 6.92876 20.1658C7.26077 20.1895 7.66225 19.9314 8.46521 19.4152L17.9064 13.3459C18.6032 12.898 18.9516 12.674 19.0719 12.3892C19.177 12.1404 19.177 11.8596 19.0719 11.6108C18.9516 11.326 18.6032 11.102 17.9064 10.6541L17.9064 10.6541L8.46521 4.58478C7.66225 4.06859 7.26077 3.81049 6.92876 3.83421C6.63943 3.85487 6.37332 4.00015 6.19948 4.23235C6 4.49881 6 4.9761 6 5.93067Z" stroke="#1C1B1F" stroke-width="2" stroke-linejoin="bevel"/>
</svg>
