<svg width="24" height="24" viewBox="0 0 24 24" fill="none" xmlns="http://www.w3.org/2000/svg">
<path d="M6.33333 20.9375C5.94375 20.9375 5.625 20.6281 5.625 20.25V3.75C5.625 3.37188 5.94375 3.0625 6.33333 3.0625H13.4167V6.5C13.4167 7.26055 14.0497 7.875 14.8333 7.875H18.375V20.25C18.375 20.6281 18.0562 20.9375 17.6667 20.9375H6.33333ZM6.33333 1C4.77057 1 3.5 2.2332 3.5 3.75V20.25C3.5 21.7668 4.77057 23 6.33333 23H17.6667C19.2294 23 20.5 21.7668 20.5 20.25V7.63867C20.5 6.9082 20.2034 6.20781 19.6721 5.69219L15.6612 1.80352C15.1299 1.28789 14.4128 1 13.6602 1H6.33333ZM8.8125 12C8.2237 12 7.75 12.4598 7.75 13.0312C7.75 13.6027 8.2237 14.0625 8.8125 14.0625H15.1875C15.7763 14.0625 16.25 13.6027 16.25 13.0312C16.25 12.4598 15.7763 12 15.1875 12H8.8125ZM8.8125 16.125C8.2237 16.125 7.75 16.5848 7.75 17.1562C7.75 17.7277 8.2237 18.1875 8.8125 18.1875H15.1875C15.7763 18.1875 16.25 17.7277 16.25 17.1562C16.25 16.5848 15.7763 16.125 15.1875 16.125H8.8125Z" fill="#6B7280"/>
</svg>
