<svg width="24" height="25" viewBox="0 0 24 25" fill="none" xmlns="http://www.w3.org/2000/svg">
<path d="M15.2143 7.65726C15.2143 6.80478 14.8756 5.98721 14.2728 5.38442C13.67 4.78162 12.8525 4.44298 12 4.44298C11.1475 4.44298 10.33 4.78162 9.72716 5.38442C9.12436 5.98721 8.78571 6.80478 8.78571 7.65726C8.78571 8.50974 9.12436 9.32731 9.72716 9.9301C10.33 10.5329 11.1475 10.8715 12 10.8715C12.8525 10.8715 13.67 10.5329 14.2728 9.9301C14.8756 9.32731 15.2143 8.50974 15.2143 7.65726ZM6.85714 7.65726C6.85714 6.29329 7.39898 4.98519 8.36345 4.02071C9.32792 3.05624 10.636 2.5144 12 2.5144C13.364 2.5144 14.6721 3.05624 15.6365 4.02071C16.601 4.98519 17.1429 6.29329 17.1429 7.65726C17.1429 9.02123 16.601 10.3293 15.6365 11.2938C14.6721 12.2583 13.364 12.8001 12 12.8001C10.636 12.8001 9.32792 12.2583 8.36345 11.2938C7.39898 10.3293 6.85714 9.02123 6.85714 7.65726ZM4.9808 21.1573H19.0192C18.6616 18.614 16.4759 16.6573 13.8362 16.6573H10.1638C7.52411 16.6573 5.33839 18.614 4.9808 21.1573ZM3 21.8925C3 17.9349 6.20625 14.7287 10.1638 14.7287H13.8362C17.7938 14.7287 21 17.9349 21 21.8925C21 22.5515 20.4656 23.0858 19.8067 23.0858H4.1933C3.53438 23.0858 3 22.5515 3 21.8925Z" fill="#6B7280"/>
</svg>
