<svg width="24" height="25" viewBox="0 0 24 25" fill="none" xmlns="http://www.w3.org/2000/svg">
<g clip-path="url(#clip0_15_294)">
<path d="M15.9286 6.80005C15.9286 5.80549 15.5147 4.85166 14.7779 4.1484C14.0412 3.44514 13.0419 3.05005 12 3.05005C10.9581 3.05005 9.95883 3.44514 9.22208 4.1484C8.48533 4.85166 8.07143 5.80549 8.07143 6.80005C8.07143 7.79461 8.48533 8.74844 9.22208 9.4517C9.95883 10.155 10.9581 10.55 12 10.55C13.0419 10.55 14.0412 10.155 14.7779 9.4517C15.5147 8.74844 15.9286 7.79461 15.9286 6.80005ZM5.71429 6.80005C5.71429 5.20875 6.37653 3.68263 7.55533 2.55741C8.73413 1.43219 10.3329 0.800049 12 0.800049C13.6671 0.800049 15.2659 1.43219 16.4447 2.55741C17.6235 3.68263 18.2857 5.20875 18.2857 6.80005C18.2857 8.39135 17.6235 9.91747 16.4447 11.0427C15.2659 12.1679 13.6671 12.8 12 12.8C10.3329 12.8 8.73413 12.1679 7.55533 11.0427C6.37653 9.91747 5.71429 8.39135 5.71429 6.80005ZM3.42098 22.55H20.579C20.142 19.5829 17.4705 17.3 14.2442 17.3H9.7558C6.52946 17.3 3.85804 19.5829 3.42098 22.55ZM1 23.4079C1 18.7907 4.91875 15.05 9.7558 15.05H14.2442C19.0813 15.05 23 18.7907 23 23.4079C23 24.1766 22.3469 24.8 21.5415 24.8H2.45848C1.65313 24.8 1 24.1766 1 23.4079Z" fill="#6B7280"/>
</g>
<defs>
<clipPath id="clip0_15_294">
<rect width="24" height="24" fill="white" transform="translate(0 0.800049)"/>
</clipPath>
</defs>
</svg>
