<svg width="24" height="24" viewBox="0 0 24 24" fill="none" xmlns="http://www.w3.org/2000/svg">
<g clip-path="url(#clip0_6_2679)">
<path d="M19 5.49999C18.2538 4.62817 14.0319 3.99999 12 3.99999C9.96812 3.99999 5.74619 4.62817 5 5.49999V14C5 18 12 21 12 21C12 21 19 18 19 14V5.49999Z" stroke="#1C1B1F" stroke-width="2" stroke-linecap="square" stroke-linejoin="round"/>
<path d="M11 14L10.2 14.6L11.048 15.7307L11.832 14.5547L11 14ZM11.8 13.4L9.8 10.7333L8.2 11.9333L10.2 14.6L11.8 13.4ZM14.1679 7.4453L10.1679 13.4453L11.832 14.5547L15.832 8.5547L14.1679 7.4453Z" fill="#1C1B1F"/>
</g>
<defs>
<clipPath id="clip0_6_2679">
<rect width="24" height="24" fill="white"/>
</clipPath>
</defs>
</svg>
