<svg width="24" height="24" viewBox="0 0 24 24" fill="none" xmlns="http://www.w3.org/2000/svg">
<path d="M15.2 6H8.8C7.11984 6 6.27976 6 5.63803 6.32698C5.07354 6.6146 4.6146 7.07354 4.32698 7.63803C4 8.27976 4 9.11984 4 10.8V15.2C4 16.8802 4 17.7202 4.32698 18.362C4.6146 18.9265 5.07354 19.3854 5.63803 19.673C6.27976 20 7.11984 20 8.8 20H15.2C16.8802 20 17.7202 20 18.362 19.673C18.9265 19.3854 19.3854 18.9265 19.673 18.362C20 17.7202 20 16.8802 20 15.2V10.8C20 9.11984 20 8.27976 19.673 7.63803C19.3854 7.07354 18.9265 6.6146 18.362 6.32698C17.7202 6 16.8802 6 15.2 6Z" stroke="#1C1B1F" stroke-width="2"/>
<path d="M8 6V5C8 2.79086 9.79086 1 12 1C14.2091 1 16 2.79086 16 5V6" stroke="#1C1B1F" stroke-width="2" stroke-linecap="square"/>
<path d="M9 10V10.8C9 12.5673 10.3431 14 12 14C13.6569 14 15 12.5673 15 10.8V10" stroke="#1C1B1F" stroke-width="2" stroke-linecap="square"/>
</svg>
