<svg width="24" height="24" viewBox="0 0 24 24" fill="none" xmlns="http://www.w3.org/2000/svg">
<path d="M15.2 5H8.8C7.11984 5 6.27976 5 5.63803 5.32698C5.07354 5.6146 4.6146 6.07354 4.32698 6.63803C4 7.27976 4 8.11984 4 9.8V14.1994C4 15.8796 4 16.7197 4.32698 17.3614C4.6146 17.9259 5.07354 18.3848 5.63803 18.6725C6.27976 18.9994 7.11984 18.9994 8.8 18.9994H15.2C16.8802 18.9994 17.7202 18.9994 18.362 18.6725C18.9265 18.3848 19.3854 17.9259 19.673 17.3614C20 16.7197 20 15.8796 20 14.1994V9.8C20 8.11984 20 7.27976 19.673 6.63803C19.3854 6.07354 18.9265 5.6146 18.362 5.32698C17.7202 5 16.8802 5 15.2 5Z" stroke="#1C1B1F" stroke-width="2" stroke-linecap="round"/>
<path d="M9 14L11 12L9 10" stroke="#1C1B1F" stroke-width="2" stroke-linecap="square"/>
<path d="M14 15H16" stroke="#1C1B1F" stroke-width="2" stroke-linecap="square"/>
</svg>
