<svg width="24" height="24" viewBox="0 0 24 24" fill="none" xmlns="http://www.w3.org/2000/svg">
<g clip-path="url(#clip0_6_2683)">
<path d="M12 21L14.4995 18.8673L17.7851 18.8944L18.3289 15.654L20.8633 13.5628L19.197 10.731L19.7942 7.5L16.6975 6.40175L15.0782 3.54277L12 4.692L8.92182 3.54277L7.30251 6.40175L4.20577 7.5L4.80303 10.731L3.13673 13.5628L5.67109 15.654L6.21491 18.8944L9.50052 18.8673L12 21Z" stroke="#1C1B1F" stroke-width="2" stroke-linecap="square" stroke-linejoin="round"/>
<path d="M11 14L10.2567 14.669L11.0449 15.5447L11.7809 14.6247L11 14ZM11.7433 13.331L9.74329 11.1088L8.25671 12.4467L10.2567 14.669L11.7433 13.331ZM14.2191 8.3753L10.2191 13.3753L11.7809 14.6247L15.7809 9.6247L14.2191 8.3753Z" fill="#1C1B1F"/>
</g>
<defs>
<clipPath id="clip0_6_2683">
<rect width="24" height="24" fill="white"/>
</clipPath>
</defs>
</svg>
