<svg width="24" height="24" viewBox="0 0 24 24" fill="none" xmlns="http://www.w3.org/2000/svg">
<path d="M21 14.2V9.8C21 8.11984 21 7.27976 20.673 6.63803C20.3854 6.07354 19.9265 5.6146 19.362 5.32698C18.7202 5 17.8802 5 16.2 5H11.8C10.1198 5 9.27976 5 8.63803 5.32698C8.07354 5.6146 7.6146 6.07354 7.32698 6.63803C7 7.27976 7 8.11984 7 9.8V14.2C7 15.8802 7 16.7202 7.32698 17.362C7.6146 17.9265 8.07354 18.3854 8.63803 18.673C9.27976 19 10.1198 19 11.8 19H16.2C17.8802 19 18.7202 19 19.362 18.673C19.9265 18.3854 20.3854 17.9265 20.673 17.362C21 16.7202 21 15.8802 21 14.2Z" stroke="#1C1B1F" stroke-width="2" stroke-linecap="round" stroke-linejoin="round"/>
<path d="M7 13.5L3.25877 16.1189C2.85139 16.404 2.64769 16.5466 2.47814 16.5392C2.3305 16.5327 2.19327 16.4613 2.10331 16.344C2 16.2094 2 15.9608 2 15.4635V8.53652C2 8.03925 2 7.79061 2.10331 7.65596C2.19327 7.53871 2.3305 7.46727 2.47814 7.46081C2.64769 7.45339 2.85139 7.59597 3.25877 7.88114L7 10.5" stroke="#1C1B1F" stroke-width="2" stroke-linecap="round" stroke-linejoin="round"/>
</svg>
