<svg width="24" height="24" viewBox="0 0 24 24" fill="none" xmlns="http://www.w3.org/2000/svg">
<path d="M11.9981 5.35163C9.53521 5.35163 7.5105 6.46975 5.95796 7.90896C4.50365 9.26129 3.49884 10.8667 2.98511 11.9999C3.49884 13.1332 4.50365 14.7386 5.95419 16.0909C7.5105 17.5301 9.53521 18.6483 11.9981 18.6483C14.461 18.6483 16.4857 17.5301 18.0382 16.0909C19.4926 14.7386 20.4974 13.1332 21.0111 11.9999C20.4974 10.8667 19.4926 9.26129 18.042 7.90896C16.4857 6.46975 14.461 5.35163 11.9981 5.35163ZM4.72274 6.58308C6.50192 4.92855 8.94593 3.53845 11.9981 3.53845C15.0503 3.53845 17.4943 4.92855 19.2735 6.58308C21.0413 8.22627 22.2237 10.1868 22.7865 11.5353C22.9112 11.8337 22.9112 12.1661 22.7865 12.4646C22.2237 13.8131 21.0413 15.7774 19.2735 17.4168C17.4943 19.0713 15.0503 20.4614 11.9981 20.4614C8.94593 20.4614 6.50192 19.0713 4.72274 17.4168C2.95489 15.7774 1.77255 13.8131 1.21349 12.4646C1.08883 12.1661 1.08883 11.8337 1.21349 11.5353C1.77255 10.1868 2.95489 8.22249 4.72274 6.58308ZM11.9981 15.0219C13.6677 15.0219 15.0201 13.6696 15.0201 11.9999C15.0201 10.3303 13.6677 8.97798 11.9981 8.97798C11.9717 8.97798 11.949 8.97798 11.9226 8.97798C11.9717 9.17063 11.9981 9.37461 11.9981 9.58237C11.9981 10.9158 10.914 11.9999 9.58054 11.9999C9.37278 11.9999 9.1688 11.9735 8.97615 11.9244C8.97615 11.9508 8.97615 11.9735 8.97615 11.9999C8.97615 13.6696 10.3285 15.0219 11.9981 15.0219ZM11.9981 7.1648C13.2805 7.1648 14.5103 7.67422 15.4171 8.58098C16.3238 9.48775 16.8332 10.7176 16.8332 11.9999C16.8332 13.2823 16.3238 14.5121 15.4171 15.4189C14.5103 16.3257 13.2805 16.8351 11.9981 16.8351C10.7157 16.8351 9.48591 16.3257 8.57915 15.4189C7.67239 14.5121 7.16297 13.2823 7.16297 11.9999C7.16297 10.7176 7.67239 9.48775 8.57915 8.58098C9.48591 7.67422 10.7157 7.1648 11.9981 7.1648Z" fill="#6B7280"/>
</svg>
