<svg width="24" height="24" viewBox="0 0 24 24" fill="none" xmlns="http://www.w3.org/2000/svg">
<path d="M11 4H8.8C7.11984 4 6.27976 4 5.63803 4.32698C5.07354 4.6146 4.6146 5.07354 4.32698 5.63803C4 6.27976 4 7.11984 4 8.8V15.2C4 16.8802 4 17.7202 4.32698 18.362C4.6146 18.9265 5.07354 19.3854 5.63803 19.673C6.27976 20 7.11984 20 8.8 20H15.2C16.8802 20 17.7202 20 18.362 19.673C18.9265 19.3854 19.3854 18.9265 19.673 18.362C20 17.7202 20 16.8802 20 15.2V13" stroke="#1C1B1F" stroke-width="2"/>
<path d="M9.99989 14C9.99989 14 9.70956 11.2902 10.9999 10L16.9999 4C16.9999 4 17.9999 4.00013 18.9999 5C19.9999 5.99987 19.9999 7 19.9999 7L13.9999 13C12.7088 14.291 9.99989 14 9.99989 14Z" stroke="#1C1B1F" stroke-width="2" stroke-linecap="square"/>
</svg>
